<svg xmlns="http://www.w3.org/2000/svg" xmlns:xlink="http://www.w3.org/1999/xlink" width="20" height="20" viewBox="0 0 20 20">
  <defs>
    <clipPath id="clip-path">
      <rect id="Retângulo_1145" data-name="Retângulo 1145" width="20" height="20" transform="translate(-0.236 -0.236)" fill="#fff" stroke="#ef7e37" stroke-linecap="round" stroke-width="2"/>
    </clipPath>
  </defs>
  <g id="Botão_fechar" data-name="Botão fechar" transform="translate(0.236 0.236)" clip-path="url(#clip-path)">
    <g id="Camada_1-2" transform="translate(2.026 2.023)">
      <path id="União_2" data-name="União 2" d="M-5177.941,169.737c-.083-.071-.148-.139-.2-.193l-.039-.041-1.739-1.737c-1.511-1.509-3.067-3.065-4.607-4.611-.975.979-1.958,1.963-2.913,2.919-1.15,1.151-2.338,2.34-3.5,3.511a1.98,1.98,0,0,1-1.429.633,1.981,1.981,0,0,1-.449-.052l-.007,0a1.864,1.864,0,0,1-1.331-1.222,1.877,1.877,0,0,1,.311-1.791,2.694,2.694,0,0,1,.245-.266l.035-.035c2.089-2.089,4.242-4.242,6.375-6.367-1.143-1.139-2.295-2.288-3.414-3.405q-1.506-1.5-3.011-3.006l-.013-.012a2.006,2.006,0,0,1-.626-1.453v-.032a1.844,1.844,0,0,1,1.085-1.645,1.909,1.909,0,0,1,.818-.187,1.878,1.878,0,0,1,1.172.421,3.037,3.037,0,0,1,.269.25l.035.035,6.353,6.353c2.115-2.114,4.288-4.287,6.426-6.43a1.97,1.97,0,0,1,1.419-.63,1.977,1.977,0,0,1,.466.058,1.865,1.865,0,0,1,1.325,1.217,1.884,1.884,0,0,1-.312,1.8l0,.007a2.938,2.938,0,0,1-.253.27l-.038.038c-2.08,2.08-4.226,4.226-6.349,6.353l6.4,6.4a1.9,1.9,0,0,1,.653,1.4,1.841,1.841,0,0,1-1.087,1.759l-.012.006a1.99,1.99,0,0,1-.808.177A1.841,1.841,0,0,1-5177.941,169.737Zm-14.432-.634h0Zm.045,0a.872.872,0,0,0,.54-.253A.872.872,0,0,1-5192.327,169.1Zm-.239-.022a.9.9,0,0,0,.123.02.9.9,0,0,1-.123-.02.77.77,0,0,1-.582-.757A.77.77,0,0,0-5192.566,169.08Zm16.659-.831a.759.759,0,0,1-.437.777.759.759,0,0,0,.438-.777c0-.007,0-.013,0-.02S-5175.906,168.243-5175.907,168.249Zm-8.425-6.475q3.465,3.478,6.937,6.941c.064.062.122.126.19.185-.068-.058-.126-.122-.19-.185q-3.469-3.471-6.937-6.941Zm-.394,0q-3.5,3.513-7.01,7.024l-.017.018.017-.018q3.5-3.515,7.01-7.024a.823.823,0,0,1,.072-.064A.823.823,0,0,0-5184.725,161.774Zm.094-.08a.251.251,0,0,1,.059-.03A.25.25,0,0,0-5184.631,161.695Zm.207,0a.184.184,0,0,0-.1-.037A.184.184,0,0,1-5184.425,161.694Zm8.354-8.578a2.819,2.819,0,0,1-.215.224q-3.471,3.471-6.937,6.941a.283.283,0,0,0-.1.2.283.283,0,0,1,.1-.2q3.464-3.469,6.937-6.941a2.819,2.819,0,0,0,.215-.224.77.77,0,0,0,.169-.478A.77.77,0,0,1-5176.071,153.116Zm-16.763.166q3.515,3.5,7.03,7.01c.075.076.112.133.112.19,0-.057-.037-.114-.112-.19q-3.524-3.5-7.03-7.01a.9.9,0,0,1-.311-.631A.9.9,0,0,0-5192.833,153.281Zm8.31,6.062a.066.066,0,0,1-.03-.008A.066.066,0,0,0-5184.523,159.343Zm.01,0a.211.211,0,0,0,.095-.067A.211.211,0,0,1-5184.513,159.342Zm-.127-.079-.061-.062Zm7.523-7.267a.789.789,0,0,1,.345-.135A.788.788,0,0,0-5177.117,152Zm-15.524-.083a.815.815,0,0,1,.175-.048A.815.815,0,0,0-5192.641,151.913Zm16.162-.032-.057-.012Zm-15.815-.022-.062,0Zm15.613,0h0Z" transform="translate(5192.262 -152.741)" fill="#fff"/>
    </g>
  </g>
</svg>
