<svg xmlns="http://www.w3.org/2000/svg" xmlns:xlink="http://www.w3.org/1999/xlink" width="23" height="23" viewBox="0 0 23 23">
  <defs>
    <clipPath id="clip-path">
      <rect id="Ret칙ngulo_49" data-name="Ret칙ngulo 49" width="23" height="23" transform="translate(2504 270)" fill="#707070" stroke="#707070" stroke-width="1"/>
    </clipPath>
  </defs>
  <g id="Grupo_de_m치scara_2" data-name="Grupo de m치scara 2" transform="translate(-2504 -270)" clip-path="url(#clip-path)">
    <g id="Camada_1" data-name="Camada 1" transform="translate(2504.001 274.589)">
      <g id="Grupo_7" data-name="Grupo 7">
        <path id="Caminho_36" data-name="Caminho 36" d="M11.456,13.82a12.868,12.868,0,0,1-7.949-2.588A12.818,12.818,0,0,1,.192,7.525a1.051,1.051,0,0,1-.01-1.2A12.677,12.677,0,0,1,7.618.536,13.272,13.272,0,0,1,11.9.008a12.75,12.75,0,0,1,8.947,3.83,11.6,11.6,0,0,1,2.073,2.794.546.546,0,0,1,0,.562,11.944,11.944,0,0,1-2.65,3.349,12.434,12.434,0,0,1-5.639,2.932,13.666,13.666,0,0,1-3.175.346Zm.012-1.584A5.327,5.327,0,1,0,6.15,6.9a5.319,5.319,0,0,0,5.317,5.331ZM5.86,2.9a.333.333,0,0,0-.2.079,10,10,0,0,0-3.7,3.512.712.712,0,0,0,.007.861,9.964,9.964,0,0,0,3.755,3.544c.044.024.089.069.142.046a6.84,6.84,0,0,1,0-8.042Zm11.193-.044a6.853,6.853,0,0,1,0,8.108.327.327,0,0,0,.064-.018,9.822,9.822,0,0,0,3.983-3.829.354.354,0,0,0,0-.39,9.843,9.843,0,0,0-4.053-3.871Z" fill="#707070"/>
        <path id="Caminho_37" data-name="Caminho 37" d="M11.462,9.232a2.322,2.322,0,0,1,.007-4.644,2.322,2.322,0,1,1-.008,4.644Z" fill="#707070"/>
      </g>
    </g>
  </g>
</svg>
