<svg xmlns="http://www.w3.org/2000/svg" xmlns:xlink="http://www.w3.org/1999/xlink" width="23" height="23" viewBox="0 0 23 23">
  <defs>
    <clipPath id="clip-path">
      <rect id="Ret칙ngulo_50" data-name="Ret칙ngulo 50" width="23" height="23" fill="#707070" stroke="#707070" stroke-width="1"/>
    </clipPath>
  </defs>
  <g id="Grupo_de_m치scara_3" data-name="Grupo de m치scara 3" clip-path="url(#clip-path)">
    <g id="Camada_1" data-name="Camada 1" transform="translate(0 1.449)">
      <g id="Grupo_8" data-name="Grupo 8">
        <path id="Caminho_38" data-name="Caminho 38" d="M11.425,17.084A12.961,12.961,0,0,1,3.474,14.49,11.7,11.7,0,0,1,.112,10.458a.8.8,0,0,1-.007-.8A11.861,11.861,0,0,1,2.711,6.266a11.342,11.342,0,0,1,2.061-1.5c.183-.1.153-.17.028-.295C3.725,3.4,2.658,2.32,1.581,1.254c-.158-.156-.155-.25,0-.4C1.846.62,2.1.368,2.336.108c.135-.146.222-.142.363,0Q5.237,2.657,7.786,5.2q2.755,2.749,5.512,5.495,3.672,3.672,7.337,7.351c.272.272.543.545.825.807.133.125.149.213.006.346-.275.257-.545.523-.8.8-.139.153-.224.132-.36-.006-1.206-1.215-2.42-2.424-3.624-3.639a.333.333,0,0,0-.412-.089,13.084,13.084,0,0,1-3.62.74c-.451.03-.9.08-1.226.082ZM6.089,10.365A5.212,5.212,0,0,0,8.151,14.3a5.3,5.3,0,0,0,6.343.223c.123-.085.224-.144.062-.3-.648-.632-1.286-1.272-1.924-1.914a.253.253,0,0,0-.321-.064,2,2,0,0,1-.814.171A2.336,2.336,0,0,1,9.308,9.265a.3.3,0,0,0-.086-.371Q8.274,7.955,7.339,7c-.121-.124-.183-.133-.286.019a5.578,5.578,0,0,0-.964,3.342Zm-.371,3.666A6.964,6.964,0,0,1,5.711,6.1c-.046.021-.073.029-.1.044A10.671,10.671,0,0,0,1.839,9.807a.411.411,0,0,0,0,.491,10.5,10.5,0,0,0,1.45,1.875A10.346,10.346,0,0,0,5.718,14.031Z" transform="translate(0 0)" fill="#707070"/>
        <path id="Caminho_39" data-name="Caminho 39" d="M17.315,6.09a7.642,7.642,0,0,1,1.069,2.53,6.661,6.661,0,0,1-.178,3.459c-.059.192-.124.187-.252.055q-.48-.495-.976-.976a.377.377,0,0,1-.12-.364,5.4,5.4,0,0,0-4.37-6.077A5.225,5.225,0,0,0,10.732,4.7a.326.326,0,0,1-.32-.1c-.386-.393-.778-.78-1.166-1.171-.045-.045-.124-.085-.093-.165s.1-.047.16-.057a14.149,14.149,0,0,1,3.336-.136,12.885,12.885,0,0,1,3.914.861,12.014,12.014,0,0,1,6.288,5.6.991.991,0,0,1,0,1.046,12.538,12.538,0,0,1-2.709,3.425c-.124.112-.211.129-.336-.006-.262-.281-.536-.552-.815-.816-.13-.123-.133-.2.008-.32a10.816,10.816,0,0,0,2.129-2.479.515.515,0,0,0,.01-.632,10.387,10.387,0,0,0-3.821-3.65Z" transform="translate(0 0)" fill="#707070"/>
      </g>
    </g>
  </g>
</svg>
