<svg id="icone-calendario" xmlns="http://www.w3.org/2000/svg" xmlns:xlink="http://www.w3.org/1999/xlink" width="80" height="80" viewBox="0 0 80 80">
  <defs>
    <clipPath id="clip-path">
      <rect id="Ret칙ngulo_2069" data-name="Ret칙ngulo 2069" width="80" height="80" transform="translate(9030 -5949)" fill="#ef7e37" stroke="#707070" stroke-width="1"/>
    </clipPath>
  </defs>
  <g id="Grupo_de_m치scara_2742" data-name="Grupo de m치scara 2742" transform="translate(-9030 5949)" clip-path="url(#clip-path)">
    <g id="Camada_1" data-name="Camada 1" transform="translate(9031.671 -5949)">
      <g id="Grupo_4425" data-name="Grupo 4425">
        <path id="Caminho_1345" data-name="Caminho 1345" d="M38.344,80H3.857C1.226,80,0,78.789,0,76.186Q0,43.324,0,10.462C0,7.9,1.24,6.67,3.806,6.669c2.9,0,5.8-.015,8.7.012.624.006.852-.186.82-.817-.044-.881-.027-1.764,0-2.646a3.294,3.294,0,0,1,3.2-3.2c1.235-.027,2.47-.03,3.706,0A3.292,3.292,0,0,1,23.4,3.178q.045,1.4,0,2.8c-.017.526.176.711.7.7,1.487-.024,2.975-.008,4.462-.008H52.233a.915.915,0,0,0,1.02-1.047c0-.731-.006-1.463,0-2.193A3.3,3.3,0,0,1,56.63.018c1.134-.012,2.269-.015,3.4,0A3.3,3.3,0,0,1,63.34,3.345c.014.832.044,1.667-.009,2.495-.044.69.23.849.875.843,2.949-.029,5.9-.017,8.848-.012a3.272,3.272,0,0,1,3.6,3.612q0,33.051,0,66.1A3.268,3.268,0,0,1,73.058,80Q55.7,80,38.344,80ZM38.4,25.082H4.441a.883.883,0,0,0-1.006.987V75.541a.915.915,0,0,0,1.043,1.025h67.7a.915.915,0,0,0,1.044-1.025v-49.4a.948.948,0,0,0-1.081-1.062H38.406Zm-.074-3.434h30.4c1.285,0,2.571-.011,3.856,0,.435,0,.644-.129.643-.6q-.016-5.179,0-10.359c0-.415-.155-.59-.577-.588q-4.347.014-8.7,0c-.465,0-.62.188-.612.634.017.932.02,1.866,0,2.8a3.314,3.314,0,0,1-3.183,3.221q-1.851.045-3.7,0a3.293,3.293,0,0,1-3.189-3.21c-.021-.856-.052-1.717.008-2.571.05-.728-.239-.888-.912-.881-3.151.03-6.3.014-9.452.014-6.226,0-12.452.008-18.677-.011-.609,0-.867.158-.832.8.047.855.023,1.714.006,2.571a3.324,3.324,0,0,1-3.275,3.286c-1.159.02-2.319.017-3.478,0a3.3,3.3,0,0,1-3.33-3.3c-.015-.856-.033-1.716.006-2.571.026-.587-.162-.8-.771-.79q-4.158.041-8.318,0c-.637-.006-.815.211-.811.828.024,3.2.011,6.4.012,9.6a.982.982,0,0,0,1.094,1.125h33.8ZM19.97,8.388c0-1.413-.015-2.824.008-4.236.009-.514-.152-.74-.691-.712-.629.033-1.261.021-1.89,0-.427-.012-.655.109-.653.593q.018,4.349,0,8.7c0,.479.218.609.649.6.631-.018,1.261-.029,1.89,0,.535.027.7-.192.7-.709-.024-1.411-.008-2.824-.008-4.235Zm39.94,0c0-1.413-.015-2.824.008-4.236.009-.514-.152-.74-.691-.712-.629.033-1.261.021-1.89,0-.427-.012-.655.109-.653.593q.018,4.349,0,8.7c0,.479.218.609.649.6.631-.018,1.261-.029,1.89,0,.535.027.7-.192.7-.709-.024-1.411-.008-2.824-.008-4.235Z" fill="#ef7e37"/>
        <path id="Caminho_1346" data-name="Caminho 1346" d="M38.329,31.631H62.3c1.038,0,1.041,0,1.041,1.038v36.3c0,1.037,0,1.04-1.04,1.04H14.356c-1.038,0-1.041,0-1.041-1.038v-36.3c0-1.037,0-1.04,1.04-1.04H38.329ZM16.749,39.1c0,1.185.011,2.37-.006,3.556-.006.446.15.635.614.632q3.517-.02,7.034,0c.427,0,.576-.182.574-.593q-.014-3.517,0-7.034c0-.412-.147-.594-.574-.593q-3.517.014-7.034,0c-.464,0-.62.186-.614.632.017,1.134.006,2.269.006,3.4Zm19.862.146c0-1.159-.018-2.32.009-3.48.012-.521-.168-.711-.7-.706q-3.4.03-6.808,0c-.5,0-.731.127-.726.679q.032,3.442,0,6.882c0,.487.164.67.659.667q3.442-.025,6.883,0c.543,0,.7-.208.687-.717-.026-1.109-.008-2.219-.008-3.328Zm11.649.006c0-1.185-.011-2.37.006-3.556.006-.446-.15-.635-.614-.632q-3.517.02-7.034,0c-.427,0-.576.18-.574.593q.014,3.517,0,7.034c0,.412.147.594.574.593q3.517-.014,7.034,0c.464,0,.62-.186.614-.632-.017-1.134-.006-2.269-.006-3.4Zm11.649-.076c0-1.159-.011-2.32.006-3.48.006-.446-.15-.635-.614-.632q-3.517.02-7.034,0c-.427,0-.576.18-.574.593q.014,3.517,0,7.034c0,.412.147.594.574.593q3.517-.014,7.034,0c.464,0,.62-.186.614-.632-.017-1.159-.006-2.319-.006-3.48ZM24.963,50.9c0-1.185-.011-2.37.006-3.556.006-.446-.15-.635-.614-.632q-3.517.02-7.034,0c-.427,0-.576.18-.574.593q.014,3.517,0,7.034c0,.412.147.594.574.593q3.517-.014,7.034,0c.464,0,.62-.186.614-.632-.017-1.134-.006-2.269-.006-3.4Zm11.649,0c0-1.185-.011-2.37.006-3.556.006-.446-.15-.635-.614-.632q-3.517.02-7.034,0c-.427,0-.576.18-.574.593q.014,3.517,0,7.034c0,.412.147.594.574.593q3.517-.014,7.034,0c.464,0,.62-.186.614-.632-.017-1.134-.006-2.269-.006-3.4Zm11.649,0c0-1.185-.011-2.37.006-3.556.006-.446-.15-.635-.614-.632q-3.517.02-7.034,0c-.427,0-.576.18-.574.593q.014,3.517,0,7.034c0,.412.147.594.574.593q3.517-.014,7.034,0c.464,0,.62-.186.614-.632-.017-1.134-.006-2.269-.006-3.4Zm7.472,4.03c1.159,0,2.32-.018,3.48.009.521.012.712-.167.708-.7q-.03-3.4,0-6.808c0-.5-.126-.731-.677-.726q-3.442.032-6.883,0c-.485,0-.671.162-.667.658q.025,3.442,0,6.882c0,.541.206.7.717.687,1.109-.026,2.219-.008,3.328-.008ZM16.751,62.4c0,1.185.011,2.37-.006,3.556-.006.447.152.634.615.631q3.478-.02,6.958,0c.429,0,.653-.115.65-.6q-.02-3.517,0-7.034c0-.412-.15-.593-.576-.591q-3.517.014-7.034,0c-.465,0-.618.189-.612.634.017,1.134.006,2.269.006,3.4Zm11.649,0c0,1.185.011,2.37-.006,3.556-.006.447.15.635.614.632q3.517-.02,7.034,0c.427,0,.574-.182.573-.593q-.014-3.517,0-7.034c0-.412-.149-.594-.574-.593q-3.517.014-7.034,0c-.464,0-.62.188-.612.634.017,1.134.006,2.269.006,3.4Zm15.829-4.032c-1.185,0-2.37.011-3.556-.006-.449-.006-.632.155-.631.615q.02,3.478,0,6.958c0,.43.117.652.6.649q3.517-.02,7.034,0c.414,0,.593-.152.591-.576q-.014-3.517,0-7.034c0-.467-.191-.618-.635-.611-1.134.017-2.269.006-3.4.006Zm11.5,8.212c1.185,0,2.37-.011,3.556.006.446.006.635-.15.632-.614q-.02-3.517,0-7.034c0-.427-.18-.576-.593-.574q-3.517.014-7.034,0c-.412,0-.594.147-.593.574q.014,3.517,0,7.034c0,.464.186.62.632.614,1.134-.017,2.269-.006,3.4-.006Z" fill="#ef7e37"/>
      </g>
    </g>
  </g>
</svg>
