<svg id="icone_-carrinho" data-name="icone -carrinho" xmlns="http://www.w3.org/2000/svg" xmlns:xlink="http://www.w3.org/1999/xlink" width="30" height="30" viewBox="0 0 30 30">
  <defs>
    <clipPath id="clip-path">
      <rect id="Ret칙ngulo_2072" data-name="Ret칙ngulo 2072" width="30" height="30" transform="translate(-19955 -16771)" fill="#fff" stroke="#707070" stroke-width="1"/>
    </clipPath>
  </defs>
  <g id="Grupo_de_m치scara_2744" data-name="Grupo de m치scara 2744" transform="translate(19955 16771)" clip-path="url(#clip-path)">
    <g id="Camada_1" data-name="Camada 1" transform="translate(-19954.988 -16771)">
      <path id="Caminho_1349" data-name="Caminho 1349" d="M15.724,30a3.143,3.143,0,0,1-1.148-.6,2.461,2.461,0,0,1-.433-3.26c.106-.163.112-.236-.07-.342a2.874,2.874,0,0,1-1.257-1.756c-.343-1.131-.594-2.287-.879-3.433Q9.92,12.5,7.91,4.378C7.78,3.855,7.675,3.326,7.5,2.816A1.84,1.84,0,0,0,5.48,1.3C4.573,1.275,3.664,1.3,2.757,1.3c-.119,0-.207.008-.248.162A1.259,1.259,0,0,1,1.4,2.54a1.286,1.286,0,0,1-1.385-.9L0,1.616V.935A1.376,1.376,0,0,1,1.457,0C2.8.022,4.144.007,5.488.007c2.044,0,2.936,1.105,3.377,2.783s.85,3.392,1.263,5.092c.054.223.182.245.37.244q3.193-.006,6.386,0c4.087,0,8.174.011,12.261-.011.733,0,.982.479.748,1.09-1.467,3.833-2.91,7.675-4.363,11.513-.171.451-.339.56-.837.56H13.849c-.409,0-.416,0-.312.387.187.694.345,1.394.553,2.083a1.527,1.527,0,0,0,1.524,1.2c.321.014.641.036.963.036H25.4c.621,0,.781.145.837.765a.409.409,0,0,0,.1.23A2.507,2.507,0,0,1,25,29.951c-.045.013-.088.032-.132.049H23.842a.422.422,0,0,0-.077-.035,2.523,2.523,0,0,1-1.716-3.473c.109-.244-.051-.219-.2-.219-1.038,0-2.077.005-3.115,0-.242,0-.266.062-.177.276a2.419,2.419,0,0,1-.065,2.081A2.652,2.652,0,0,1,16.747,30H15.725Zm3.76-20.587q-4.327,0-8.654-.005c-.25,0-.306.061-.245.3q1.253,5.006,2.489,10.015c.045.183.12.266.325.265q5.377-.009,10.754,0a.323.323,0,0,0,.35-.249q1.892-5.015,3.793-10.027c.114-.3.111-.3-.214-.3h-8.6Zm-2.025,18.1a1.224,1.224,0,1,0-1.248,1.213,1.25,1.25,0,0,0,1.248-1.213Zm8.118-.016a1.224,1.224,0,1,0-1.232,1.23A1.249,1.249,0,0,0,25.576,27.5Z" fill="#fff"/>
    </g>
  </g>
</svg>
