<svg id="icone-combustivel" xmlns="http://www.w3.org/2000/svg" xmlns:xlink="http://www.w3.org/1999/xlink" width="80" height="80" viewBox="0 0 80 80">
  <defs>
    <clipPath id="clip-path">
      <rect id="Ret칙ngulo_76" data-name="Ret칙ngulo 76" width="80" height="80" transform="translate(207 276)" fill="#ef7e37" stroke="#707070" stroke-width="1"/>
    </clipPath>
  </defs>
  <g id="Grupo_de_m치scara_16" data-name="Grupo de m치scara 16" transform="translate(-207 -276)" clip-path="url(#clip-path)">
    <g id="Camada_1" data-name="Camada 1" transform="translate(207 285.993)">
      <g id="Grupo_44" data-name="Grupo 44">
        <path id="Caminho_74" data-name="Caminho 74" d="M76.51,41.566c.633,0,1.126-.011,1.625,0a1.658,1.658,0,0,1,1.807,1.78q.024,3.25,0,6.5A1.613,1.613,0,0,1,78.6,51.605c-.375.107-.467.236-.413.622a6.644,6.644,0,0,1-4.135,7.283A6.568,6.568,0,0,1,66.2,57.183c-.375-.509-.52-.472-.879.011a6.325,6.325,0,0,1-6.843,2.6,6.485,6.485,0,0,1-5.132-5.25,5.468,5.468,0,0,1-.011-2.322c.08-.4-.043-.579-.445-.568H27.655q-1.024,0-.928.987a6.706,6.706,0,0,1-4.242,6.891,6.61,6.61,0,0,1-7.669-2.118,2.437,2.437,0,0,1-.225-.3c-.247-.456-.445-.424-.729,0a6.57,6.57,0,0,1-3.379,2.547,6.709,6.709,0,0,1-8.714-7.24c.075-.488.059-.708-.493-.837A1.535,1.535,0,0,1,.054,49.97c-.016-2.242-.021-4.483,0-6.725a1.6,1.6,0,0,1,1.738-1.668c.515-.021,1.233.247,1.485-.134.2-.306-.365-.858-.574-1.309A28.54,28.54,0,0,1,.4,31.334,48.709,48.709,0,0,1,1.11,14.651,18.676,18.676,0,0,1,4.049,7.588a5.977,5.977,0,0,1,5.2-2.628q30.825.08,61.65,0a5.8,5.8,0,0,1,4.907,2.451,17.962,17.962,0,0,1,3.11,7.47,47.063,47.063,0,0,1-.488,22.127,19.1,19.1,0,0,1-1.92,4.553ZM40.065,8.419q-15.453,0-30.9-.016A2.524,2.524,0,0,0,6.977,9.487,10.325,10.325,0,0,0,5.706,11.8,31.262,31.262,0,0,0,3.636,21.5,43.5,43.5,0,0,0,4.226,33a19.723,19.723,0,0,0,2.553,7.213,2.743,2.743,0,0,0,2.5,1.367q30.712-.04,61.425,0a2.715,2.715,0,0,0,2.456-1.3,13.939,13.939,0,0,0,1.85-4.2,42.468,42.468,0,0,0,.343-20.909,16.086,16.086,0,0,0-2.129-5.379,2.794,2.794,0,0,0-2.558-1.4c-10.2.038-20.4.021-30.6.021ZM39.99,48.211H75.2c.225,0,.456-.016.681,0,.445.032.654-.145.633-.611-.021-.5,0-1.008,0-1.512a.981.981,0,0,0-1.121-1.1H5.647A1.915,1.915,0,0,0,3.47,47.144a.948.948,0,0,0,1.083,1.062H40ZM8.43,51.643H6.843a1.548,1.548,0,0,0-1.684,1.834,3.248,3.248,0,0,0,6.484-.021,1.536,1.536,0,0,0-1.625-1.818H8.43Zm11.616,0H18.458a1.537,1.537,0,0,0-1.673,1.78,3.249,3.249,0,0,0,6.489.021,1.532,1.532,0,0,0-1.646-1.8H20.04Zm39.909,0H58.368a1.541,1.541,0,0,0-1.673,1.839,3.248,3.248,0,0,0,6.484-.032,1.535,1.535,0,0,0-1.636-1.813H59.955Zm11.616,0H69.983a1.539,1.539,0,0,0-1.662,1.791,3.249,3.249,0,0,0,6.489,0,1.535,1.535,0,0,0-1.657-1.791H71.565Z" fill="#ef7e37"/>
        <path id="Caminho_75" data-name="Caminho 75" d="M21.628,3.432H16.64a1.748,1.748,0,0,1-1.914-1.695A1.727,1.727,0,0,1,16.6.005q4.987-.008,9.975,0a1.676,1.676,0,0,1,1.855,1.727,1.692,1.692,0,0,1-1.893,1.695c-1.636.011-3.277,0-4.912,0Z" fill="#ef7e37"/>
        <path id="Caminho_76" data-name="Caminho 76" d="M56.528,3.437H51.541a1.744,1.744,0,0,1-1.9-1.705A1.728,1.728,0,0,1,51.52.011q4.987-.008,9.975,0a1.682,1.682,0,0,1,1.85,1.738,1.678,1.678,0,0,1-1.829,1.684c-1.662.011-3.325,0-4.987,0h0Z" fill="#ef7e37"/>
        <path id="Caminho_77" data-name="Caminho 77" d="M40,35.019A8.274,8.274,0,0,1,32.364,23.4a49.309,49.309,0,0,1,6.312-9.824,1.6,1.6,0,0,1,2.612-.016,48.1,48.1,0,0,1,6.344,9.894A8.267,8.267,0,0,1,40,35.024Zm4.907-8.355a8.9,8.9,0,0,0-.22-.96,28.734,28.734,0,0,0-4.4-7.62c-.257-.349-.434-.209-.633.059A31.107,31.107,0,0,0,35.5,25.13a4.291,4.291,0,0,0-.29,2.579,4.781,4.781,0,0,0,5.009,3.834,4.84,4.84,0,0,0,4.692-4.875Z" fill="#ef7e37"/>
      </g>
    </g>
  </g>
</svg>
