<svg id="icone-cliente" xmlns="http://www.w3.org/2000/svg" xmlns:xlink="http://www.w3.org/1999/xlink" width="23" height="23" viewBox="0 0 23 23">
  <defs>
    <clipPath id="clip-path">
      <rect id="Ret칙ngulo_65" data-name="Ret칙ngulo 65" width="23" height="23" transform="translate(21 268)" fill="#fff"/>
    </clipPath>
  </defs>
  <g id="Grupo_de_m치scara_11" data-name="Grupo de m치scara 11" transform="translate(-21 -268)" clip-path="url(#clip-path)">
    <g id="Camada_1" data-name="Camada 1" transform="translate(21 269.258)">
      <path id="Caminho_60" data-name="Caminho 60" d="M23,11.425a.63.63,0,0,1-.511.313c-.462.057-.922.133-1.383.2a.422.422,0,0,0-.4.492,1.964,1.964,0,0,1-1.926,2.178c-.191,0-.242.059-.252.248a1.923,1.923,0,0,1-1.976,1.921,1.562,1.562,0,0,1-.311-.036c-.144-.03-.191.017-.208.167a1.94,1.94,0,0,1-1.945,1.712c-.165,0-.366-.123-.479-.017-.095.089-.072.3-.116.451a1.988,1.988,0,0,1-3.26.9c-.2-.186-.394-.375-.576-.576a.372.372,0,0,0-.4-.127,1.668,1.668,0,0,1-2.025-1.335c-.049-.282-.136-.366-.413-.417a1.661,1.661,0,0,1-1.369-1.553c-.011-.144-.081-.161-.2-.18a1.687,1.687,0,0,1-1.563-1.392c-.051-.322-.172-.4-.46-.447a1.7,1.7,0,0,1-1.362-1.892c.015-.153-.019-.206-.172-.229-.419-.064-.835-.142-1.252-.224-.383-.074-.5-.277-.42-.67.045-.214.292-.331.6-.278.494.083.989.155,1.479.258a.493.493,0,0,0,.532-.172,1.9,1.9,0,0,1,1.042-.652,1.724,1.724,0,0,1,2.089,1.422.338.338,0,0,0,.337.345A1.708,1.708,0,0,1,7.562,13.29a.334.334,0,0,0,.347.335A1.675,1.675,0,0,1,9.359,15.08a.3.3,0,0,0,.294.3,1.63,1.63,0,0,1,1.375,1.159,1.69,1.69,0,0,1-.4,1.779c-.324.35-.324.343.009.686a1.276,1.276,0,0,0,.936.517,1.011,1.011,0,0,0,.932-.563,1,1,0,0,0-.078-1.1c-.047-.068-.11-.127-.155-.2a.477.477,0,0,1,.7-.631c.121.1.225.227.341.339a1.038,1.038,0,0,0,1.436.063,1.052,1.052,0,0,0,.125-1.449.612.612,0,0,1-.178-.432.476.476,0,0,1,.765-.339c.138.1.252.239.381.356a1.017,1.017,0,0,0,1.385.027,1.041,1.041,0,0,0,.174-1.4c-.032-.045-.07-.087-.1-.131a.49.49,0,0,1,.017-.648.469.469,0,0,1,.644-.036,1.176,1.176,0,0,0,.612.292,1.04,1.04,0,0,0,1.076-.595,1.019,1.019,0,0,0-.227-1.189c-.778-.786-1.563-1.568-2.343-2.351-1-1-2.01-2.006-3.006-3.017a.36.36,0,0,0-.455-.093c-.873.347-1.739.718-2.629,1.008A4.864,4.864,0,0,1,5.857,6.269a1.093,1.093,0,0,1,.313-1.883c1.15-.53,2.279-1.106,3.415-1.663a.474.474,0,0,0,.184-.138h-.2c-1.309,0-2.618-.015-3.925.006A7.408,7.408,0,0,1,3.6,2.35c-1.042-.277-2.093-.513-3.14-.767C.18,1.509.04,1.377.021,1.17A.467.467,0,0,1,.644.63q1.875.449,3.75.907a1.983,1.983,0,0,0,.474.066q3.381,0,6.764,0a1.052,1.052,0,0,0,.479-.116C12.891,1.1,13.664.7,14.456.346A3.49,3.49,0,0,1,17.92.591c.165.1.254.278.415.377a2.4,2.4,0,0,0,1.841.316C20.9,1.119,21.631.969,22.356.8A.559.559,0,0,1,23,1.066v.375a.691.691,0,0,1-.542.341c-.716.144-1.43.3-2.146.439a3.415,3.415,0,0,1-2.51-.428c-.2-.121-.314-.331-.517-.447a2.484,2.484,0,0,0-2.362-.153c-.987.449-1.953.943-2.926,1.421Q9.267,3.946,6.539,5.276c-.152.074-.191.119-.053.254a3.875,3.875,0,0,0,4.207.97c1.028-.345,2.032-.761,3.042-1.157a.55.55,0,0,1,.657.146q2.529,2.534,5.065,5.063c.206.206.419.407.617.623.108.116.189.117.288,0a.4.4,0,0,1,.269-.14c.57-.081,1.142-.161,1.71-.263a.573.573,0,0,1,.657.277v.375Zm-19.03-.456a.631.631,0,0,0-.405.182,3.809,3.809,0,0,0-.47.472,1.017,1.017,0,0,0-.3.513.835.835,0,0,0,.428.8.725.725,0,0,0,.85-.091,6.564,6.564,0,0,0,.574-.574.689.689,0,0,0,.123-.811.834.834,0,0,0-.809-.491ZM5.395,14.8a.637.637,0,0,0,.445-.152,4.667,4.667,0,0,0,.623-.616.717.717,0,0,0-.08-1.044.731.731,0,0,0-1.051-.021c-.186.169-.362.347-.532.53a.693.693,0,0,0-.142.811.784.784,0,0,0,.737.491Zm2.784,2.71a.735.735,0,0,0,.447.777.7.7,0,0,0,.78-.116,5.6,5.6,0,0,0,.587-.593.769.769,0,0,0-.366-1.235.6.6,0,0,0-.716.182,3.5,3.5,0,0,1-.515.517.534.534,0,0,0-.218.468Zm.242-2.161a.788.788,0,0,0-.481-.724.68.68,0,0,0-.8.121,7.157,7.157,0,0,0-.574.576.678.678,0,0,0-.112.8.769.769,0,0,0,.725.474.558.558,0,0,0,.451-.214,5.49,5.49,0,0,1,.576-.574.554.554,0,0,0,.21-.455Z" transform="translate(-0.002 0.002)" fill="#fff"/>
    </g>
  </g>
</svg>
