<svg id="icone-alerta" xmlns="http://www.w3.org/2000/svg" xmlns:xlink="http://www.w3.org/1999/xlink" width="80" height="80" viewBox="0 0 80 80">
  <defs>
    <clipPath id="clip-path">
      <rect id="Ret칙ngulo_78" data-name="Ret칙ngulo 78" width="80" height="80" transform="translate(916 265)" fill="#ef7e37" stroke="#707070" stroke-width="1"/>
    </clipPath>
  </defs>
  <g id="Grupo_de_m치scara_19" data-name="Grupo de m치scara 19" transform="translate(-916 -265)" clip-path="url(#clip-path)">
    <g id="Camada_1" data-name="Camada 1" transform="translate(916 269.138)">
      <g id="Grupo_47" data-name="Grupo 47">
        <path id="Caminho_97" data-name="Caminho 97" d="M39.938,71.677c-11.506,0-23.012-.086-34.513.045A5.375,5.375,0,0,1,.732,63.646C9.546,48.293,18.264,32.88,27.014,17.491c2.779-4.889,5.576-9.769,8.332-14.676a5.222,5.222,0,0,1,9.268,0Q59.764,29.495,74.952,56.16c1.446,2.542,2.87,5.1,4.339,7.631a5.309,5.309,0,0,1-4.611,7.922c-11.579-.091-23.162-.032-34.74-.032Zm-.009-3.438h34.29c2.2,0,2.892-1.182,1.819-3.065Q68.091,51.2,60.144,37.214,50.867,20.9,41.585,4.589c-.937-1.651-2.265-1.655-3.2-.018-1.5,2.6-2.961,5.221-4.448,7.831L5.462,62.459c-.6,1.051-1.223,2.092-1.787,3.161a1.68,1.68,0,0,0,1.433,2.606c.3.027.6.014.91.014Z" fill="#ef7e37"/>
        <path id="Caminho_98" data-name="Caminho 98" d="M36.6,36.569v-11.2c0-1.528.573-2.1,2.1-2.106.96,0,1.915-.014,2.874,0a1.651,1.651,0,0,1,1.787,1.8q.014,11.576,0,23.148a1.651,1.651,0,0,1-1.792,1.8c-1.032.018-2.069.014-3.1,0A1.678,1.678,0,0,1,36.6,48.138c-.009-3.857,0-7.718,0-11.574Z" fill="#ef7e37"/>
        <path id="Caminho_99" data-name="Caminho 99" d="M36.6,58.28c0-.555-.018-1.11,0-1.66a1.62,1.62,0,0,1,1.66-1.687c1.132-.032,2.265-.027,3.4,0a1.612,1.612,0,0,1,1.687,1.66c.032,1.132.027,2.265,0,3.4a1.61,1.61,0,0,1-1.66,1.687c-1.132.032-2.265.027-3.4,0a1.638,1.638,0,0,1-1.7-1.733c-.018-.555,0-1.11,0-1.66Z" fill="#ef7e37"/>
      </g>
    </g>
  </g>
</svg>
