<svg id="Componente_33_3" data-name="Componente 33 – 3" xmlns="http://www.w3.org/2000/svg" xmlns:xlink="http://www.w3.org/1999/xlink" width="30" height="30" viewBox="0 0 30 30">
  <defs>
    <clipPath id="clip-path">
      <rect id="Retângulo_2066" data-name="Retângulo 2066" width="30" height="30" transform="translate(1465 143)" fill="#fff" stroke="#707070" stroke-width="1"/>
    </clipPath>
  </defs>
  <g id="Grupo_de_máscara_2739" data-name="Grupo de máscara 2739" transform="translate(-1465 -143)" clip-path="url(#clip-path)">
    <g id="Camada_1" data-name="Camada 1" transform="translate(1466.564 143)">
      <g id="Grupo_4401" data-name="Grupo 4401">
        <path id="Caminho_1333" data-name="Caminho 1333" d="M19.833,30a6.791,6.791,0,0,1-2.865-1.162.692.692,0,0,0-.441-.066H.408c-.408,0-.408,0-.409-.4Q0,14.394,0,.417A.371.371,0,0,1,.426.005Q7.066.005,13.707,0a.773.773,0,0,1,.6.253Q18.28,4.242,22.27,8.219a.8.8,0,0,1,.256.623c-.007,2.857,0,5.713-.011,8.571a.444.444,0,0,0,.338.489,6.234,6.234,0,0,1,3.974,4.868c.012.064.03.128.045.192v1.59c-.015.064-.033.127-.045.192a6.3,6.3,0,0,1-2.945,4.371A6.884,6.884,0,0,1,21.423,30h-1.59ZM1.289,14.358V27.071a.368.368,0,0,0,.422.411h13.45c.066,0,.132,0,.2,0,.191.008.186-.074.094-.2-.05-.069-.1-.14-.14-.213a6,6,0,0,1-.131-6.388,6.046,6.046,0,0,1,5.654-3.19c.393,0,.394,0,.394-.38V9.79a.331.331,0,0,0-.369-.378H13.541a.383.383,0,0,1-.427-.438V1.681a.343.343,0,0,0-.389-.387H1.685a.356.356,0,0,0-.4.408V14.358ZM25.6,23.765a4.968,4.968,0,1,0-4.992,4.951A4.968,4.968,0,0,0,25.6,23.765ZM20.147,8.133,14.4,2.389v.191c0,1.73.007,3.461-.007,5.192,0,.3.1.359.375.357,1.721-.011,3.442-.005,5.163-.007C20.024,8.121,20.121,8.152,20.147,8.133Z" fill="#fff"/>
        <path id="Caminho_1334" data-name="Caminho 1334" d="M11.254,13.159H4.785a.37.37,0,0,1-.413-.424c0-.2.007-.4,0-.6s.056-.289.258-.27c.056.006.114,0,.17,0H17.708a.4.4,0,0,1,.442.452v.426a.359.359,0,0,1-.4.411h-6.5Z" fill="#fff"/>
        <path id="Caminho_1335" data-name="Caminho 1335" d="M11.263,16.905c-2.175,0-4.35,0-6.526.006-.281,0-.4-.071-.37-.364a6.152,6.152,0,0,0,0-.709c0-.155.063-.228.219-.22.066,0,.132,0,.2,0H17.728c.421,0,.432,0,.418.415-.009.279.128.631-.071.816-.182.17-.526.054-.8.055q-3.008.007-6.015,0Z" fill="#fff"/>
        <path id="Caminho_1336" data-name="Caminho 1336" d="M7.8,20.652c-1.03,0-2.061-.007-3.092.005-.259,0-.358-.078-.337-.338a5.035,5.035,0,0,0,0-.68c-.011-.211.075-.28.281-.278.69.009,1.38,0,2.07,0,1.408,0,2.817.006,4.226-.005.259,0,.359.078.337.338a4.163,4.163,0,0,0,0,.652c.016.237-.078.309-.31.307-1.059-.009-2.118,0-3.177,0Z" fill="#fff"/>
        <path id="Caminho_1337" data-name="Caminho 1337" d="M21.272,21.764c0,.35.013.7,0,1.049-.012.244.085.305.313.3.681-.011,1.361-.006,2.042,0,.473,0,.714.225.712.649s-.245.636-.724.638c-.662,0-1.324.016-1.985-.006-.3-.01-.368.093-.36.372.019.661.008,1.323.005,1.985,0,.472-.227.714-.649.712s-.636-.245-.638-.724c0-.662-.016-1.324.006-1.985.01-.3-.093-.367-.373-.359-.661.019-1.323.008-1.985.005-.472,0-.714-.227-.712-.649s.244-.636.724-.638c.662,0,1.324-.016,1.985.006.3.01.368-.093.36-.372-.019-.661-.008-1.323-.005-1.985,0-.472.226-.714.649-.712s.635.244.638.724c0,.331,0,.662,0,.993Z" fill="#fff"/>
      </g>
    </g>
  </g>
</svg>
