<svg id="icone-suporte" xmlns="http://www.w3.org/2000/svg" xmlns:xlink="http://www.w3.org/1999/xlink" width="23" height="23" viewBox="0 0 23 23">
  <defs>
    <clipPath id="clip-path">
      <rect id="Ret칙ngulo_70" data-name="Ret칙ngulo 70" width="23" height="23" transform="translate(21 368)" fill="#fff"/>
    </clipPath>
  </defs>
  <g id="Grupo_de_m치scara_13" data-name="Grupo de m치scara 13" transform="translate(-21 -368)" clip-path="url(#clip-path)">
    <g id="Camada_1" data-name="Camada 1" transform="translate(22.997 368)">
      <path id="Caminho_62" data-name="Caminho 62" d="M14.481,10.766c0-.568,0-1.133,0-1.7a.255.255,0,0,0-.185-.286,7.7,7.7,0,0,1-3.2-2.343c-.093-.115-.156-.156-.286-.043a9.85,9.85,0,0,1-4,2,14.478,14.478,0,0,1-3.051.537c-.179.01-.226.095-.224.261q.006,1.6,0,3.2c0,.539-.356.767-.841.539-.438-.206-.876-.411-1.306-.629-.16-.082-.239-.074-.278.121a1.687,1.687,0,0,0,.068,1.066,1.137,1.137,0,0,0,.987.726.483.483,0,0,1,.485.364,19.848,19.848,0,0,0,2.678,5.2,6.38,6.38,0,0,0,1.65,1.572,3.572,3.572,0,0,0,4.18-.146A6.183,6.183,0,0,0,12.28,20.14a.44.44,0,0,1,.387-.181c.309.01.619,0,.93,0,.1,0,.183.014.093.138A6.626,6.626,0,0,1,10.316,22.8a4.555,4.555,0,0,1-4.143-.765A9.386,9.386,0,0,1,3.709,19.19a23.327,23.327,0,0,1-1.771-3.719.422.422,0,0,0-.292-.278A2.5,2.5,0,0,1,.42,11.445a.528.528,0,0,0,.095-.337c0-1.08-.058-2.166.012-3.242A7.855,7.855,0,0,1,4.244,1.3,8.87,8.87,0,0,1,7.9.095,13.614,13.614,0,0,1,9.456,0a.587.587,0,0,1,.479.2c.2.218.422.413.621.629a.575.575,0,0,0,.438.185,6.843,6.843,0,0,1,4.12,1.438A6.248,6.248,0,0,1,17.188,5.8a9.128,9.128,0,0,1,.321,2.507c-.006.483,0,.967,0,1.45,0,.144.031.21.2.23a1.5,1.5,0,0,1,1.3,1.5c0,.664,0,1.331,0,2a1.492,1.492,0,0,1-1.263,1.491c-.2.033-.243.111-.234.29a3.9,3.9,0,0,1-1.078,2.96,3.824,3.824,0,0,1-2.773,1.255c-.664.016-1.331.008-2,0a.316.316,0,0,0-.319.189A1.455,1.455,0,0,1,10,20.488c-.348,0-.7,0-1.043,0a1.512,1.512,0,0,1,.01-3.022c.348,0,.7,0,1.043,0a1.444,1.444,0,0,1,1.325.8.324.324,0,0,0,.335.2c.741-.025,1.481.031,2.219-.041a2.914,2.914,0,0,0,2.551-2.579c.012-.158.029-.317.035-.473,0-.056.027-.136-.047-.16a.213.213,0,0,0-.189.053.419.419,0,0,0-.109.2c-.179.432-.374.86-.533,1.3a1.627,1.627,0,0,1-.866.909,2.866,2.866,0,0,1-.7.249c-.051.01-.109.041-.15,0-.058-.058,0-.113.025-.163.3-.586.586-1.177.839-1.783.2-.467.4-.932.568-1.409a.436.436,0,0,1,.448-.356c.163,0,.226-.064.222-.232q-.012-.589,0-1.179c0-.187-.064-.183-.2-.111q-.25.136-.506.253a.522.522,0,0,1-.794-.5c0-.56,0-1.119,0-1.678ZM1.5,9.275c0,.722,0,1.214,0,1.7a.262.262,0,0,0,.173.282c.208.091.411.191.615.288.224.107.226.107.226-.148V8.543A.5.5,0,0,1,3,7.981c.255-.033.51-.056.765-.082a15.9,15.9,0,0,0,4.217-1A6.687,6.687,0,0,0,10.61,5.167a.515.515,0,0,1,.85.084,5.8,5.8,0,0,0,.833,1.014,7.882,7.882,0,0,0,2.763,1.693.56.56,0,0,1,.455.658v1.2q0,.793,0,1.586c0,.064-.047.167.072.181.146.021.389-.206.391-.36q0-.352,0-.7a.491.491,0,0,1,.352-.52c.134-.043.148-.123.148-.237,0-.378,0-.755,0-1.133a9,9,0,0,0-.4-2.9,4.985,4.985,0,0,0-2.446-3.018,6.985,6.985,0,0,0-3.137-.679.5.5,0,0,1-.376-.165c-.23-.241-.469-.471-.7-.708a.316.316,0,0,0-.253-.123,10.481,10.481,0,0,0-2.522.395,6.7,6.7,0,0,0-4.9,4.986A10.475,10.475,0,0,0,1.5,9.271Zm15.51,3.19v1.29c0,.091-.008.181.115.214a.621.621,0,0,0,.852-.64c0-.529,0-1.055,0-1.584,0-.586-.175-.749-.761-.736-.16,0-.21.06-.206.214.006.413,0,.829,0,1.244Zm-7.5,6.992c.158,0,.319.01.475,0a.5.5,0,0,0,.494-.467.49.49,0,0,0-.5-.485c-.317-.014-.636-.014-.95,0a.49.49,0,0,0-.494.467.5.5,0,0,0,.5.488c.158.012.317,0,.475,0Z" transform="translate(0)" fill="#fff"/>
    </g>
  </g>
</svg>
