<svg id="icone-recuperar-senha" xmlns="http://www.w3.org/2000/svg" xmlns:xlink="http://www.w3.org/1999/xlink" width="80" height="80" viewBox="0 0 80 80">
  <defs>
    <clipPath id="clip-path">
      <rect id="Ret칙ngulo_2071" data-name="Ret칙ngulo 2071" width="80" height="80" transform="translate(5595 -20597)" fill="#ef7e37" stroke="#707070" stroke-width="1"/>
    </clipPath>
  </defs>
  <g id="Grupo_de_m치scara_2743" data-name="Grupo de m치scara 2743" transform="translate(-5595 20597)" clip-path="url(#clip-path)">
    <g id="Camada_1" data-name="Camada 1" transform="translate(5595 -20591.275)">
      <g id="Grupo_4453" data-name="Grupo 4453">
        <path id="Caminho_1347" data-name="Caminho 1347" d="M80,35.519c-.821-.205-1.635-.447-2.467-.6-.629-.119-.8-.435-.8-1.05q.028-10.428.006-20.856c0-.374.2-.935-.112-1.083-.336-.162-.61.367-.89.609q-9.648,8.392-19.294,16.789c-.472.409-.382.591.045.893.494.349.947.754,1.43,1.12.379.287.408.485-.073.7-.708.315-1.408.651-2.09,1.019a1.042,1.042,0,0,1-1.312-.165c-1.086-.9-1.094-.872-2.146.054-1.581,1.392-3.157,2.792-4.766,4.152-4.817,4.075-10.545,3.981-15.276-.214-1.667-1.478-3.365-2.921-5.031-4.4a.718.718,0,0,0-1.108-.039Q14.964,41.291,3.78,50.109a1.114,1.114,0,0,0-.489.982c.026.871.029,1.745,0,2.615-.017.52.2.7.687.658.216-.02.435,0,.654,0q20.931,0,41.86-.017c.74,0,1.166.179,1.4.907a18.111,18.111,0,0,0,.815,1.861c.162.355.1.561-.335.548-.169-.006-.339,0-.508,0H1.137A1.012,1.012,0,0,1,0,56.509Q0,28.825,0,1.136A1.012,1.012,0,0,1,1.155,0h77.9c.313,0,.626.032.941.05V35.519ZM40.063,3.3H4.6a5.522,5.522,0,0,1-.581,0c-.524-.055-.75.138-.725.693.036.8.039,1.6,0,2.4A1.5,1.5,0,0,0,3.878,7.7c2.476,2.135,4.934,4.293,7.4,6.441q8.764,7.639,17.53,15.274c2.138,1.861,4.248,3.753,6.437,5.553a7.3,7.3,0,0,0,5.107,1.765,8.278,8.278,0,0,0,5.034-2.2Q60.643,21.241,75.909,7.957a2.064,2.064,0,0,0,.855-1.93,15.807,15.807,0,0,1-.012-1.743.879.879,0,0,0-1-.984H40.066ZM3.348,46.135c.173-.112.258-.157.332-.216q9.974-7.883,19.952-15.759c.478-.376.3-.543-.05-.846Q14.734,21.612,5.9,13.893c-.81-.706-1.627-1.4-2.551-2.2V46.137Z" fill="#ef7e37"/>
        <path id="Caminho_1348" data-name="Caminho 1348" d="M80,43.077a42.8,42.8,0,0,1-1.251,6.841,31.98,31.98,0,0,1-12.915,17.97,2.837,2.837,0,0,1-3.62.016A30.869,30.869,0,0,1,48.707,47.76a37.816,37.816,0,0,1-.753-8.37c.007-.561.182-.824.734-.944A36.9,36.9,0,0,0,55.372,36.5c1.27-.537,2.528-1.108,3.763-1.723a10.212,10.212,0,0,1,9.7-.007,40.2,40.2,0,0,0,10.518,3.69c.213.042.43.073.644.109v4.506ZM51.4,43.038a30.335,30.335,0,0,0,1.172,6.54A26.464,26.464,0,0,0,63.128,64.431a1.262,1.262,0,0,0,1.733-.05,29.122,29.122,0,0,0,11.8-22.148c.052-.77-.181-1.018-.9-1.2a33.21,33.21,0,0,1-7.769-3.014,7.737,7.737,0,0,0-7.939,0A33.227,33.227,0,0,1,52.5,41.009q-1.152.306-1.094,2.03Z" fill="#ef7e37"/>
      </g>
    </g>
  </g>
</svg>
