<svg id="icone-cadastro" xmlns="http://www.w3.org/2000/svg" xmlns:xlink="http://www.w3.org/1999/xlink" width="23" height="23" viewBox="0 0 23 23">
  <defs>
    <clipPath id="clip-path">
      <rect id="Ret칙ngulo_1141" data-name="Ret칙ngulo 1141" width="23" height="23" transform="translate(2225 -575)" fill="#fff" stroke="#707070" stroke-width="1"/>
    </clipPath>
  </defs>
  <g id="Grupo_de_m치scara_24" data-name="Grupo de m치scara 24" transform="translate(-2225 575)" clip-path="url(#clip-path)">
    <g id="Camada_1" data-name="Camada 1" transform="translate(2225.651 -575)">
      <g id="Grupo_4064" data-name="Grupo 4064">
        <path id="Caminho_1327" data-name="Caminho 1327" d="M12.663,23a.6.6,0,0,1-.332-.6q.007-5.295,0-10.59c0-.453.169-.625.616-.625,1.892,0,3.783,0,5.675,0a.779.779,0,0,1,.595.248q1.116,1.127,2.242,2.244a1.4,1.4,0,0,1,.232.3q0,4.426,0,8.852c0,.153-.03.184-.183.183q-4.426-.009-8.852,0Zm.686-5.9c0,1.549,0,3.1,0,4.647,0,.187.04.262.246.261q3.429-.01,6.858,0c.2,0,.249-.069.248-.259q-.009-3.173,0-6.345c0-.216-.076-.261-.272-.258-.7.009-1.4.005-2.1,0-.4,0-.582-.183-.583-.591,0-.7-.008-1.4,0-2.1,0-.209-.063-.265-.267-.263q-1.932.012-3.865,0c-.222,0-.273.072-.272.281.008,1.541,0,3.083,0,4.625ZM18.76,12.52v1.465c0,.075.022.138.109.139.5,0,1.006,0,1.495,0l-1.6-1.6Z" fill="#fff"/>
        <path id="Caminho_1328" data-name="Caminho 1328" d="M5.686,21.044q-2.7,0-5.409,0c-.188,0-.291-.03-.275-.256a5.112,5.112,0,0,1,.6-2.312A5.123,5.123,0,0,1,2.7,16.587c.888-.478,1.847-.793,2.763-1.207a4.385,4.385,0,0,0,1.018-.6.908.908,0,0,0,.4-.846,1.284,1.284,0,0,1,0-.245A2.484,2.484,0,0,0,6.453,11.9a3.39,3.39,0,0,1-.525-1.392.538.538,0,0,0-.2-.328A2.318,2.318,0,0,1,5.239,7.5a.489.489,0,0,0,.052-.382A10.278,10.278,0,0,1,5.008,4.33,4.338,4.338,0,0,1,6.336,1.163,4.52,4.52,0,0,1,8.71.1,5.611,5.611,0,0,1,11.038.14a2.5,2.5,0,0,1,1.276.7.448.448,0,0,0,.229.128,2.926,2.926,0,0,1,2.232,2.588,8.15,8.15,0,0,1-.282,3.533.556.556,0,0,0,.042.46,2.467,2.467,0,0,1-.371,2.532c-.058.058-.116.133-.2.135-.342.008-.685.007-1.027,0-.087,0-.106-.072-.1-.145s.026-.162.033-.243c.034-.4.033-.4.418-.434a.256.256,0,0,0,.222-.159,1.849,1.849,0,0,0,.164-1.066.381.381,0,0,0-.289-.309c-.171-.063-.195-.157-.129-.326a8.076,8.076,0,0,0,.553-3.324,2.854,2.854,0,0,0-.456-1.543,1.885,1.885,0,0,0-1.366-.756c-.107-.016-.208-.028-.263-.136a1.125,1.125,0,0,0-.8-.591,4.581,4.581,0,0,0-3.7.6A2.783,2.783,0,0,0,6.106,3.751,9.136,9.136,0,0,0,6.432,7.46c.048.195.031.318-.154.423a.565.565,0,0,0-.249.584,2.487,2.487,0,0,0,.124.543c.105.329.162.372.5.385.155.006.209.07.209.219a4.061,4.061,0,0,0,.552,1.934.85.85,0,0,0,.368.408c.106.05.115.138.114.242,0,.574,0,1.148,0,1.721a.8.8,0,0,0,.627.928,3.646,3.646,0,0,0,2.619.036c.187-.067.256-.052.244.161s-.007.447,0,.671a.2.2,0,0,1-.16.23,4.371,4.371,0,0,1-3.687-.483c-.083-.055-.149-.117-.251-.02a5.784,5.784,0,0,1-1.8,1.055,22.4,22.4,0,0,0-2.47,1.094,3.582,3.582,0,0,0-1.8,2.073c-.015.05-.023.1-.042.15-.068.177.008.221.176.22.9,0,1.8,0,2.7,0h7.019c.307,0,.308,0,.309.306,0,.172-.006.343,0,.514.006.145-.056.2-.2.2-.4,0-.8,0-1.207,0H5.686Z" fill="#fff"/>
        <path id="Caminho_1329" data-name="Caminho 1329" d="M17.015,17.11c-.715,0-1.43,0-2.145,0-.358,0-.577-.2-.576-.508s.219-.506.578-.506q2.157,0,4.313,0a.51.51,0,1,1,0,1.013c-.722,0-1.445,0-2.168,0Z" fill="#fff"/>
        <path id="Caminho_1330" data-name="Caminho 1330" d="M16.776,20.03c.641,0,1.281,0,1.922,0a.509.509,0,1,1,.011,1.013q-1.933,0-3.866,0a.509.509,0,1,1,.011-1.013C15.495,20.028,16.135,20.03,16.776,20.03Z" fill="#fff"/>
        <path id="Caminho_1331" data-name="Caminho 1331" d="M16.038,19.077c-.395,0-.79,0-1.184,0a.509.509,0,1,1-.011-1.013q1.2,0,2.391,0a.509.509,0,1,1-.011,1.014c-.395,0-.79,0-1.184,0Z" fill="#fff"/>
      </g>
    </g>
  </g>
</svg>
