<svg id="icone-checagem" xmlns="http://www.w3.org/2000/svg" xmlns:xlink="http://www.w3.org/1999/xlink" width="80" height="80" viewBox="0 0 80 80">
  <defs>
    <clipPath id="clip-path">
      <rect id="Ret칙ngulo_2067" data-name="Ret칙ngulo 2067" width="80" height="80" transform="translate(4744 -6043)" fill="#ef7e37" stroke="#707070" stroke-width="1"/>
    </clipPath>
  </defs>
  <g id="Grupo_de_m치scara_2740" data-name="Grupo de m치scara 2740" transform="translate(-4744 6043)" clip-path="url(#clip-path)">
    <g id="Camada_1" data-name="Camada 1" transform="translate(4752.294 -6043)">
      <g id="Grupo_4405" data-name="Grupo 4405">
        <path id="Caminho_1339" data-name="Caminho 1339" d="M33.083,0A6.936,6.936,0,0,1,38,4.514c.17.49.557.428.932.428H53.389c1.615,0,3.229,0,4.844,0a4.99,4.99,0,0,1,5.175,5.208q.007,23.045,0,46.088,0,9.2,0,18.39a5.015,5.015,0,0,1-5.351,5.34c-17.558,0-35.116-.03-52.672.032A5.359,5.359,0,0,1,0,74.63Q.092,42.467,0,10.3a5.373,5.373,0,0,1,5.438-5.4c6.33.118,12.663.036,18.994.033.387,0,.82.11,1.007-.425A6.945,6.945,0,0,1,30.358,0h2.724ZM3.471,42.414V73.97a9.045,9.045,0,0,0,.017.907A1.647,1.647,0,0,0,5.14,76.519a6.812,6.812,0,0,0,.681.015H57.656c.2,0,.4.006.605-.011a1.658,1.658,0,0,0,1.7-1.682c.03-.325.015-.655.015-.984V11.051c0-.253.006-.5,0-.757a1.715,1.715,0,0,0-1.937-1.909c-4.087-.017-8.172,0-12.259-.017-.542,0-.7.207-.687.717.023,1.337.015,2.673,0,4.011a1.711,1.711,0,0,1-1.962,1.937q-11.388.007-22.777,0c-1.382,0-1.993-.608-2-1.974q-.011-2,0-4.011c0-.406-.064-.678-.568-.677C13.6,8.385,9.409,8.364,5.222,8.4c-1.117.009-1.679.649-1.745,1.782-.017.277-.008.555-.008.832v31.4ZM31.642,11.6c3.024,0,6.05-.018,9.074.014.7.008,1.035-.15.954-.914a9.252,9.252,0,0,1,0-1.586c.036-.555-.166-.761-.734-.748-1.285.032-2.57.012-3.857.009-1.4,0-1.916-.451-2.089-1.822a3.348,3.348,0,0,0-1.606-2.681c-2.174-1.261-4.6.1-4.928,2.747a1.7,1.7,0,0,1-1.925,1.753c-1.361.011-2.723.017-4.084,0-.487-.008-.687.166-.664.66a12.8,12.8,0,0,1,0,1.738c-.062.687.222.851.869.845,3-.029,6-.014,9-.012Z" fill="#ef7e37"/>
        <path id="Caminho_1340" data-name="Caminho 1340" d="M43.36,41.674a1.719,1.719,0,0,1-1.35-.563c-1.6-1.6-3.215-3.2-4.8-4.815a1.729,1.729,0,0,1-.142-2.558,1.779,1.779,0,0,1,2.682.08c.887.858,1.748,1.742,2.623,2.614q.733.731,1.291-.1,2.348-3.519,4.691-7.044a2.383,2.383,0,0,1,1.314-1.069,1.575,1.575,0,0,1,1.722.45,1.6,1.6,0,0,1,.368,1.813,5.046,5.046,0,0,1-.45.784q-3.206,4.811-6.416,9.616a1.637,1.637,0,0,1-1.529.793Z" fill="#ef7e37"/>
        <path id="Caminho_1341" data-name="Caminho 1341" d="M43.342,63.319A1.734,1.734,0,0,1,42,62.745c-1.583-1.588-3.177-3.163-4.751-4.76a1.745,1.745,0,0,1-.17-2.614,1.779,1.779,0,0,1,2.682.1c.94.913,1.872,1.833,2.776,2.782.428.451.671.433,1.02-.1,1.583-2.425,3.206-4.825,4.807-7.238a2.358,2.358,0,0,1,1.249-1.037,1.584,1.584,0,0,1,1.789.445,1.625,1.625,0,0,1,.324,1.889,4.3,4.3,0,0,1-.344.586q-3.249,4.872-6.5,9.742a1.624,1.624,0,0,1-1.536.778Z" fill="#ef7e37"/>
        <path id="Caminho_1342" data-name="Caminho 1342" d="M21.587,36.682q-4.125,0-8.249,0a1.75,1.75,0,0,1-1.924-1.691,1.73,1.73,0,0,1,1.868-1.742q8.362-.009,16.724,0A1.727,1.727,0,0,1,31.292,36.2a1.8,1.8,0,0,1-1.382.489c-2.774-.009-5.549,0-8.325,0Z" fill="#ef7e37"/>
        <path id="Caminho_1343" data-name="Caminho 1343" d="M21.579,58.327q-4.087,0-8.173,0a1.734,1.734,0,1,1-.041-3.434q8.248,0,16.5,0A1.7,1.7,0,0,1,31.8,56.624c-.009,1.056-.743,1.7-1.971,1.7q-4.125.007-8.249,0Z" fill="#ef7e37"/>
      </g>
    </g>
  </g>
</svg>
