<svg id="icone-dashboard" xmlns="http://www.w3.org/2000/svg" xmlns:xlink="http://www.w3.org/1999/xlink" width="23" height="23" viewBox="0 0 23 23">
  <defs>
    <clipPath id="clip-path">
      <rect id="Ret칙ngulo_81" data-name="Ret칙ngulo 81" width="23" height="23" transform="translate(2008 537)" fill="#fff" stroke="#707070" stroke-width="1"/>
    </clipPath>
  </defs>
  <g id="Grupo_de_m치scara_20" data-name="Grupo de m치scara 20" transform="translate(-2008 -537)" clip-path="url(#clip-path)">
    <g id="Camada_1" data-name="Camada 1" transform="translate(2008.004 537)">
      <g id="Grupo_54" data-name="Grupo 54">
        <path id="Caminho_101" data-name="Caminho 101" d="M22.991,11.505A11.55,11.55,0,0,1,11.484,23,11.589,11.589,0,0,1,0,11.472,11.591,11.591,0,0,1,11.54,0,11.553,11.553,0,0,1,22.991,11.505ZM1.04,11.5A10.454,10.454,0,1,0,11.5,1.052,10.464,10.464,0,0,0,1.04,11.5Z" fill="#fff"/>
        <path id="Caminho_102" data-name="Caminho 102" d="M9.484,11.5a1.7,1.7,0,0,1,.474-1.218,3.076,3.076,0,0,1,1.119-.785q3.689-1.419,7.375-2.842c.1-.038.2-.077.3-.111a.525.525,0,0,1,.525.906q-1.127.982-2.258,1.961C15.682,10.566,14.364,11.744,13,12.87a2.084,2.084,0,0,1-2.361.452A1.966,1.966,0,0,1,9.484,11.5Zm6.736-2.79-.031-.048c-.056.017-.113.031-.167.052Q14.4,9.339,12.77,9.967c-.563.218-1.129.428-1.685.661a.9.9,0,0,0-.552.972.9.9,0,0,0,.773.85,1.1,1.1,0,0,0,.986-.334q1.531-1.328,3.063-2.654c.289-.25.576-.5.864-.755Z" fill="#fff"/>
        <path id="Caminho_103" data-name="Caminho 103" d="M4.564,8.012a4.178,4.178,0,0,1-1.289-.831A.444.444,0,0,1,3.326,6.6a.46.46,0,0,1,.549-.155A6.357,6.357,0,0,1,4.98,7.1a.476.476,0,0,1,.137.573.575.575,0,0,1-.553.341Z" fill="#fff"/>
        <path id="Caminho_104" data-name="Caminho 104" d="M18.367,14.9a.568.568,0,0,1,.3.091c.3.177.6.351.89.539a.518.518,0,0,1-.527.891q-.474-.263-.931-.559a.491.491,0,0,1-.219-.589.524.524,0,0,1,.488-.373Z" fill="#fff"/>
        <path id="Caminho_105" data-name="Caminho 105" d="M3.735,16.489a.536.536,0,0,1-.5-.361.478.478,0,0,1,.165-.566c.334-.218.676-.426,1.027-.615a.487.487,0,0,1,.621.169.461.461,0,0,1-.02.622,4.5,4.5,0,0,1-1.23.743.218.218,0,0,1-.06.009Z" fill="#fff"/>
        <path id="Caminho_106" data-name="Caminho 106" d="M8.055,4.566a.538.538,0,0,1-.328.483.452.452,0,0,1-.558-.112,5.171,5.171,0,0,1-.674-1.118A.512.512,0,0,1,7.344,3.3a5.942,5.942,0,0,1,.682,1.14A.622.622,0,0,1,8.055,4.566Z" fill="#fff"/>
        <path id="Caminho_107" data-name="Caminho 107" d="M16.55,3.726a3.7,3.7,0,0,1-.844,1.3.43.43,0,0,1-.564-.06.451.451,0,0,1-.159-.547,6.426,6.426,0,0,1,.656-1.1.472.472,0,0,1,.576-.126.572.572,0,0,1,.335.537Z" fill="#fff"/>
        <path id="Caminho_108" data-name="Caminho 108" d="M3.021,11.967c-.174,0-.348.007-.522,0a.5.5,0,0,1-.5-.486.487.487,0,0,1,.439-.539,4.748,4.748,0,0,1,1.2,0,.5.5,0,0,1,.438.543.517.517,0,0,1-.508.482c-.181.008-.363,0-.544,0Z" fill="#fff"/>
        <path id="Caminho_109" data-name="Caminho 109" d="M19.948,11.968c-.166,0-.333,0-.5,0a.52.52,0,0,1-.521-.469.5.5,0,0,1,.446-.558,4.726,4.726,0,0,1,1.2,0,.487.487,0,0,1,.43.547.506.506,0,0,1-.487.478l-.045,0h-.522Z" fill="#fff"/>
        <path id="Caminho_110" data-name="Caminho 110" d="M12.015,2.975c0,.174,0,.347,0,.521a.517.517,0,0,1-.508.528.512.512,0,0,1-.517-.517c-.007-.347-.006-.695,0-1.042a.511.511,0,0,1,.507-.528.517.517,0,0,1,.519.54c0,.166,0,.332,0,.5Z" fill="#fff"/>
      </g>
    </g>
  </g>
</svg>
