<svg id="icone-financeiro" xmlns="http://www.w3.org/2000/svg" xmlns:xlink="http://www.w3.org/1999/xlink" width="23" height="23" viewBox="0 0 23 23">
  <defs>
    <clipPath id="clip-path">
      <rect id="Ret칙ngulo_60" data-name="Ret칙ngulo 60" width="23" height="23" transform="translate(21 119)" fill="#fff"/>
    </clipPath>
  </defs>
  <g id="Grupo_de_m치scara_9" data-name="Grupo de m치scara 9" transform="translate(-21 -119)" clip-path="url(#clip-path)">
    <g id="Camada_1" data-name="Camada 1" transform="translate(21.981 119)">
      <g id="Grupo_31" data-name="Grupo 31" transform="translate(0 0)">
        <path id="Caminho_47" data-name="Caminho 47" d="M18.729,26.952a5.8,5.8,0,0,1-2.068-.771,5.012,5.012,0,1,1,3.5.735c-.052.008-.1.025-.152.035H18.734Zm4.617-4.994a3.975,3.975,0,0,0-7.95-.014,3.934,3.934,0,0,0,3.962,3.982A3.974,3.974,0,0,0,23.346,21.958Z" transform="translate(-3.35 -3.952)" fill="#fff"/>
        <path id="Caminho_48" data-name="Caminho 48" d="M11.613,17.367c0-.445-.012-.89,0-1.335.008-.225-.068-.284-.284-.278-.492.014-.985.008-1.475,0-.155,0-.216.045-.214.208.008.521.006,1.045,0,1.566,0,.15.056.2.2.2.461-.006.923,0,1.384,0,.167,0,.227.033.136.206a7.036,7.036,0,0,0-.3.659.236.236,0,0,1-.255.169c-.317-.006-.637,0-.954,0-.159,0-.212.054-.21.21.006.515.008,1.03,0,1.543,0,.175.066.225.229.216.19-.01.379,0,.567,0,.138,0,.208.039.218.187.014.227.043.451.068.676.012.115-.037.171-.152.167H3.309c-.534,0-.686-.152-.686-.69V12.406c0-.534.152-.684.69-.684H14.961c.532,0,.684.155.684.692,0,.727,0,1.452,0,2.18,0,.181-.047.264-.239.3a5.619,5.619,0,0,0-1.928.768.981.981,0,0,1-.6.08c-.169,0-.266.041-.237.229a.573.573,0,0,1-.235.55,5.392,5.392,0,0,0-.733.855l-.064-.021Zm-6-3.6c0-.266-.006-.529,0-.8.006-.157-.052-.214-.21-.212q-.773.009-1.545,0c-.15,0-.218.039-.216.2.008.521.006,1.045,0,1.568,0,.146.052.2.2.2q.782-.009,1.568,0c.163,0,.21-.064.206-.216-.008-.249,0-.5,0-.75Zm2.035-1c-.266,0-.529.006-.8,0-.157-.006-.214.052-.212.21q.009.773,0,1.545c0,.15.039.218.2.216.521-.008,1.045-.006,1.568,0,.146,0,.2-.052.2-.2q-.009-.782,0-1.568c0-.163-.064-.21-.216-.206-.249.008-.5,0-.75,0Zm2.979,1.965c.266,0,.529,0,.8,0,.134,0,.19-.047.19-.185,0-.529-.006-1.059,0-1.59,0-.15-.06-.2-.2-.2q-.782.009-1.568,0c-.144,0-.2.047-.2.2q.009.782,0,1.568c0,.163.062.212.214.206.258-.008.515,0,.773,0Zm3.98-.983c0-.266,0-.529,0-.8,0-.134-.045-.192-.183-.19q-.807.006-1.613,0c-.128,0-.173.054-.173.177q.006.807,0,1.613c0,.124.043.179.173.177q.807-.006,1.613,0c.14,0,.187-.056.183-.19-.006-.266,0-.529,0-.8ZM3.653,16.759c0,.249.006.5,0,.75,0,.15.039.22.2.218.521-.008,1.045-.006,1.568,0,.146,0,.2-.049.2-.2-.006-.521,0-1.045,0-1.568,0-.14-.039-.208-.192-.206-.529.006-1.059,0-1.59,0-.136,0-.192.049-.187.185C3.659,16.213,3.653,16.487,3.653,16.759Zm3-.019c0,.266,0,.529,0,.8,0,.134.047.19.185.19.529,0,1.059-.006,1.59,0,.15,0,.2-.06.2-.2q-.009-.782,0-1.568c0-.144-.047-.2-.2-.2q-.782.009-1.568,0c-.163,0-.212.062-.206.214.008.258,0,.515,0,.773ZM4.615,18.753c-.249,0-.5.006-.75,0-.152,0-.218.043-.216.206.008.521.006,1.045,0,1.568,0,.148.054.2.2.2q.782-.009,1.568,0c.142,0,.206-.043.2-.194-.006-.529,0-1.059,0-1.59,0-.138-.054-.19-.187-.185-.272.006-.546,0-.818,0Zm3.041,0c-.272,0-.546,0-.818,0-.134,0-.192.045-.19.183q.006.807,0,1.613c0,.128.054.173.177.173q.807-.006,1.613,0c.124,0,.179-.043.177-.173q-.006-.807,0-1.613c0-.14-.056-.187-.19-.183-.258.006-.515,0-.773,0Z" transform="translate(-0.612 -2.735)" fill="#fff"/>
        <path id="Caminho_49" data-name="Caminho 49" d="M.01,10.5V1.51A1.49,1.49,0,0,1,1.187.033,1.6,1.6,0,0,1,1.545,0H15.489a1.487,1.487,0,0,1,1.539,1.549V11.813c0,.307,0,.3-.3.264-.15-.019-.3-.029-.453-.033-.2,0-.311-.08-.276-.3a1.348,1.348,0,0,0,0-.2V1.819c0-.082,0-.167,0-.249a.517.517,0,0,0-.548-.54c-.06,0-.122,0-.181,0H1.772a2.07,2.07,0,0,0-.227,0,.511.511,0,0,0-.5.513c-.006.076,0,.15,0,.227V19.238c0,.068,0,.136,0,.2a.517.517,0,0,0,.548.54c.082,0,.167,0,.249,0q4.122,0,8.243,0a.362.362,0,0,1,.414.278,4.414,4.414,0,0,0,.266.577c.06.119.054.187-.1.181h-.136c-2.967,0-5.935-.016-8.9.01A1.6,1.6,0,0,1,0,19.4C.027,16.438.01,13.47.01,10.5Z" transform="translate(0 0)" fill="#fff"/>
        <path id="Caminho_50" data-name="Caminho 50" d="M9.128,2.605h6.2c.313,0,.313,0,.313.311,0,1.475,0,2.952,0,4.427,0,.229-.064.295-.295.295q-6.221-.009-12.442,0c-.227,0-.3-.06-.3-.293q.015-2.225,0-4.45c0-.229.064-.3.295-.295,2.075.008,4.147,0,6.222,0Zm0,4c1.741,0,3.482,0,5.223,0,.2,0,.264-.052.262-.255q-.015-1.236,0-2.474c0-.192-.064-.243-.249-.243q-5.235.006-10.47,0c-.183,0-.251.052-.249.243.008.818.01,1.636,0,2.452,0,.223.07.278.284.278,1.733-.008,3.467,0,5.2,0Z" transform="translate(-0.609 -0.607)" fill="#fff"/>
        <path id="Caminho_51" data-name="Caminho 51" d="M19.177,23.445h.113a.42.42,0,0,1,.441.332.721.721,0,0,0,1.061.418.61.61,0,0,0,.027-.962,2.447,2.447,0,0,0-.614-.34c-.22-.1-.445-.194-.657-.309a1.385,1.385,0,0,1-.738-1.525A1.35,1.35,0,0,1,19.9,19.944c.245-.052.317-.157.282-.379a.375.375,0,0,1,0-.068c0-.346.163-.459.5-.354a.14.14,0,0,1,.105.175c-.087.422.1.6.5.75a1.353,1.353,0,0,1,.8,1.3c.008.1-.033.161-.14.161H21.2c-.155,0-.15-.109-.167-.216-.064-.426-.251-.614-.6-.608a.485.485,0,0,0-.474.29.635.635,0,0,0,.064.686,1.067,1.067,0,0,0,.4.29c.313.15.639.28.942.449a1.4,1.4,0,0,1,.742,1.6,1.3,1.3,0,0,1-1.1,1.067c-.225.047-.295.142-.266.348a.333.333,0,0,1,0,.045c0,.334-.181.457-.5.348-.105-.035-.1-.119-.105-.2a.6.6,0,0,0-.437-.581,1.53,1.53,0,0,1-1.055-1.4c-.008-.13.027-.2.171-.2.122,0,.243,0,.363,0h0Z" transform="translate(-4.35 -4.458)" fill="#fff"/>
        <path id="Caminho_52" data-name="Caminho 52" d="M11.472,5.746c-.008.571.074.492-.488.5-.542,0-.546,0-.542-.534,0-.571-.074-.492.488-.5C11.472,5.209,11.472,5.213,11.472,5.746Z" transform="translate(-2.436 -1.216)" fill="#fff"/>
        <path id="Caminho_53" data-name="Caminho 53" d="M13.551,6.246c-.583-.01-.5.078-.5-.5,0-.527,0-.532.525-.525.583.006.5-.08.5.5C14.081,6.246,14.076,6.246,13.551,6.246Z" transform="translate(-3.044 -1.217)" fill="#fff"/>
        <path id="Caminho_54" data-name="Caminho 54" d="M15.653,5.714c.01-.577-.078-.492.509-.5.521,0,.525,0,.521.532,0,.577.08.492-.509.5C15.653,6.25,15.653,6.246,15.653,5.714Z" transform="translate(-3.652 -1.217)" fill="#fff"/>
      </g>
    </g>
  </g>
</svg>
