<svg id="icone-pedidos" xmlns="http://www.w3.org/2000/svg" xmlns:xlink="http://www.w3.org/1999/xlink" width="23" height="23" viewBox="0 0 23 23">
  <defs>
    <clipPath id="clip-path">
      <rect id="Ret칙ngulo_62" data-name="Ret칙ngulo 62" width="23" height="23" transform="translate(21 168)" fill="#fff"/>
    </clipPath>
  </defs>
  <g id="Grupo_de_m치scara_10" data-name="Grupo de m치scara 10" transform="translate(-21 -168)" clip-path="url(#clip-path)">
    <g id="Camada_1" data-name="Camada 1" transform="translate(21 168.002)">
      <g id="Grupo_32" data-name="Grupo 32">
        <path id="Caminho_55" data-name="Caminho 55" d="M11.5,23H.773c-.6,0-.766-.162-.766-.762Q0,12.856,0,3.478a.872.872,0,0,1,.349-.744c1.007-.82,2-1.657,2.993-2.5A.951.951,0,0,1,4,0q3.54.01,7.079,0,3.949,0,7.9,0a1.046,1.046,0,0,1,.721.264Q21.2,1.538,22.723,2.795A.727.727,0,0,1,23,3.4q0,9.463,0,18.927c0,.476-.2.667-.687.667h-10.8Zm.016-19.13H1.458a.29.29,0,0,0-.325.331V21.537a.291.291,0,0,0,.325.331H21.533a.3.3,0,0,0,.336-.343V4.21a.3.3,0,0,0-.336-.343H11.521Zm-9.3-1.188c.007.02.011.038.018.059H5.186c1.821,0,3.64,0,5.461,0,.232,0,.3-.068.293-.3-.018-.347-.014-.694,0-1.041.007-.2-.047-.275-.261-.275-2.134.007-4.269,0-6.4,0a.372.372,0,0,0-.261.056q-.9.744-1.79,1.49Zm18.537.059c.007-.02.011-.041.018-.061q-.9-.744-1.79-1.49a.339.339,0,0,0-.237-.056q-3.229,0-6.455,0c-.192,0-.241.074-.237.25.009.338,0,.678,0,1.019a.3.3,0,0,0,.338.34H20.76Z" fill="#fff"/>
        <path id="Caminho_56" data-name="Caminho 56" d="M14,10.616c-.638,0-1.273,0-1.911,0A1.383,1.383,0,1,1,12.1,7.851q1.9-.007,3.8,0a1.384,1.384,0,1,1-.009,2.768c-.629,0-1.258,0-1.886,0Zm.016-1.639H13.1c-.313,0-.629,0-.942,0a.267.267,0,0,0-.293.248c0,.165.133.234.286.255a.76.76,0,0,0,.124,0h3.451a.815.815,0,0,0,.149,0c.142-.025.266-.095.268-.248s-.122-.225-.261-.252a1.16,1.16,0,0,0-.2-.007H14.015Z" transform="translate(-2.496 -1.831)" fill="#fff"/>
        <path id="Caminho_57" data-name="Caminho 57" d="M20.686,26.085c-1.093,0-2.184,0-3.277,0-.223,0-.318-.061-.3-.293.018-.214.007-.43,0-.645,0-.135.054-.2.192-.194s.3,0,.446,0h6.157c.343,0,.343,0,.345.338,0,.174-.011.349,0,.521.016.205-.063.273-.268.27-1.1-.007-2.2,0-3.3,0Z" transform="translate(-3.992 -5.824)" fill="#fff"/>
        <path id="Caminho_58" data-name="Caminho 58" d="M18.229,22.028c0-.273-.014-.545,0-.818.016-.228-.077-.288-.288-.275s-.412,0-.62,0c-.047,0-.113.011-.122-.052a.157.157,0,0,1,.054-.1c.471-.476.947-.947,1.42-1.422a.14.14,0,0,1,.232,0c.473.476.947.947,1.42,1.422a.157.157,0,0,1,.054.1c-.009.063-.074.052-.122.054-.223,0-.446.011-.669,0-.189-.011-.241.068-.239.248.009.561,0,1.125.007,1.686,0,.192-.059.27-.257.259-.223-.014-.446-.007-.669,0-.146,0-.21-.056-.205-.205,0-.3,0-.6,0-.893h0Z" transform="translate(-4.014 -4.502)" fill="#fff"/>
        <path id="Caminho_59" data-name="Caminho 59" d="M23.22,22.032c0-.282-.011-.563,0-.843.011-.2-.07-.261-.261-.25-.214.011-.43,0-.645,0-.045,0-.113.014-.122-.05a.153.153,0,0,1,.052-.1c.471-.476.947-.947,1.418-1.422.095-.095.167-.07.25.014.46.462.924.924,1.384,1.386.038.038.106.079.065.142-.02.029-.088.034-.135.034-.223,0-.446.009-.669,0-.162-.007-.216.061-.216.219.007.57,0,1.14,0,1.711,0,.189-.054.273-.255.261a6.149,6.149,0,0,0-.645,0c-.169.007-.239-.054-.234-.228.009-.288,0-.579,0-.868Z" transform="translate(-5.179 -4.504)" fill="#fff"/>
      </g>
    </g>
  </g>
</svg>
