<svg id="icone-gerenciar-senha" xmlns="http://www.w3.org/2000/svg" xmlns:xlink="http://www.w3.org/1999/xlink" width="23" height="23" viewBox="0 0 23 23">
  <defs>
    <clipPath id="clip-path">
      <rect id="Ret칙ngulo_64" data-name="Ret칙ngulo 64" width="23" height="23" transform="translate(21 218)" fill="#fff"/>
    </clipPath>
  </defs>
  <g id="Grupo_de_m치scara_15" data-name="Grupo de m치scara 15" transform="translate(-21 -218)" clip-path="url(#clip-path)">
    <g id="Camada_1" data-name="Camada 1" transform="translate(21 218.762)">
      <g id="Grupo_34" data-name="Grupo 34">
        <path id="Caminho_65" data-name="Caminho 65" d="M15.314,24.5a.628.628,0,0,1-.29-.6c.009-.762.009-1.527,0-2.289a.707.707,0,0,1,.226-.542c1.052-1.043,2.095-2.095,3.146-3.137a.409.409,0,0,0,.13-.4,4,4,0,0,1,3.905-4.534,4.015,4.015,0,0,1,.7,7.978,5.191,5.191,0,0,1-.97.035c-.122-.006-.159.035-.156.151.006.24,0,.484,0,.724,0,.478-.148.626-.617.629-.226,0-.455.006-.681,0-.145-.006-.206.049-.2.2.009.264.006.53,0,.794a.466.466,0,0,1-.51.507c-.339.006-.681.012-1.02,0a.514.514,0,0,0-.458.191,1.272,1.272,0,0,1-.339.3H15.319Zm7.158-10.461a2.972,2.972,0,1,0,2.975,2.975,2.964,2.964,0,0,0-2.975-2.975Zm-6.46,8.416c0,.351.006.594,0,.834-.006.148.052.2.2.2.385-.006.771-.014,1.156,0a.647.647,0,0,0,.594-.243.689.689,0,0,1,.64-.264c.188.017.38-.009.565.006s.275-.046.264-.252c-.014-.24-.006-.484,0-.724a.468.468,0,0,1,.519-.521c.264-.006.53,0,.794,0,.087,0,.177-.006.177-.122a2.834,2.834,0,0,0-.017-.608c-.032-.142-.232-.148-.345-.232-.078-.058-.174-.1-.243-.162-.125-.113-.211-.084-.322.029-.507.519-1.023,1.028-1.538,1.541a1.732,1.732,0,0,1-.22.194.475.475,0,0,1-.591-.012.5.5,0,0,1-.194-.542.632.632,0,0,1,.211-.316c.513-.513,1.023-1.028,1.541-1.535.119-.116.154-.206.035-.339a1.4,1.4,0,0,1-.211-.322c-.09-.185-.159-.206-.316-.043-.689.71-1.376,1.425-2.1,2.1-.437.406-.756.817-.591,1.338Z" transform="translate(-3.506 -3.035)" fill="#fff"/>
        <path id="Caminho_66" data-name="Caminho 66" d="M11.4,17.02c-.3.307-.6.611-.9.915a.307.307,0,0,1-.235.058H1.446A1.479,1.479,0,0,1,0,16.49V1.57A1.492,1.492,0,0,1,1.564,0H19.433a1.488,1.488,0,0,1,1.553,1.556V9.128c0,.307,0,.3-.3.2a3.093,3.093,0,0,0-.475-.145c-.209-.038-.258-.142-.255-.342.009-1.5.006-3.007,0-4.513,0-.3,0-.3-.293-.3q-9.173,0-18.344-.006c-.226,0-.3.055-.3.29q.009,5.988.006,11.973c0,.513.168.684.681.684h9.679c.006.017.009.038.014.055ZM10.47,2.993h9.317c.11,0,.171-.035.171-.156,0-.437.009-.878-.009-1.315a.489.489,0,0,0-.5-.49c-.09-.009-.183,0-.272,0H1.674c-.466,0-.643.18-.646.649V2.7a.264.264,0,0,0,.3.3h9.137Z" fill="#fff"/>
        <path id="Caminho_67" data-name="Caminho 67" d="M5.932,15.982a1.013,1.013,0,1,1-1.02-1.011A.991.991,0,0,1,5.932,15.982Z" transform="translate(-0.912 -3.493)" fill="#fff"/>
        <path id="Caminho_68" data-name="Caminho 68" d="M11.139,15.979a1.013,1.013,0,1,1-1.023-1.008.991.991,0,0,1,1.023,1.008Z" transform="translate(-2.127 -3.493)" fill="#fff"/>
        <path id="Caminho_69" data-name="Caminho 69" d="M16.346,15.988a1.013,1.013,0,1,1-1.014-1.017A.989.989,0,0,1,16.346,15.988Z" transform="translate(-3.342 -3.493)" fill="#fff"/>
        <path id="Caminho_70" data-name="Caminho 70" d="M26.756,16.632a1.013,1.013,0,1,1-1.02-1.011.991.991,0,0,1,1.02,1.011Z" transform="translate(-5.771 -3.645)" fill="#fff"/>
        <path id="Caminho_71" data-name="Caminho 71" d="M2.487,1.953a.5.5,0,0,1,.5.533.5.5,0,0,1-.533.5.5.5,0,0,1-.5-.533A.5.5,0,0,1,2.487,1.953Z" transform="translate(-0.456 -0.456)" fill="#fff"/>
        <path id="Caminho_72" data-name="Caminho 72" d="M4.418,2.983a.5.5,0,0,1-.507-.519.514.514,0,0,1,1.028.012.5.5,0,0,1-.519.51Z" transform="translate(-0.913 -0.457)" fill="#fff"/>
        <path id="Caminho_73" data-name="Caminho 73" d="M6.371,2.983a.5.5,0,0,1-.51-.516.513.513,0,0,1,1.026.006A.5.5,0,0,1,6.371,2.983Z" transform="translate(-1.367 -0.457)" fill="#fff"/>
      </g>
    </g>
  </g>
</svg>
