<svg id="icone-atendimento" xmlns="http://www.w3.org/2000/svg" xmlns:xlink="http://www.w3.org/1999/xlink" width="50" height="50" viewBox="0 0 50 50">
  <defs>
    <clipPath id="clip-path">
      <rect id="Ret칙ngulo_59" data-name="Ret칙ngulo 59" width="50" height="50" transform="translate(59 565)" fill="#fff" stroke="#707070" stroke-width="1"/>
    </clipPath>
  </defs>
  <g id="Grupo_de_m치scara_8" data-name="Grupo de m치scara 8" transform="translate(-59 -565)" clip-path="url(#clip-path)">
    <g id="Camada_1" data-name="Camada 1" transform="translate(63.342 565)">
      <path id="Caminho_46" data-name="Caminho 46" d="M31.481,23.4c0-1.234-.009-2.464,0-3.7a.555.555,0,0,0-.4-.622,16.728,16.728,0,0,1-6.958-5.093c-.2-.25-.34-.34-.622-.094a21.413,21.413,0,0,1-8.7,4.338A31.475,31.475,0,0,1,8.174,19.4c-.389.022-.492.206-.487.568q.013,3.475,0,6.949c0,1.172-.774,1.668-1.829,1.172-.952-.447-1.9-.894-2.84-1.368-.349-.179-.519-.161-.6.264A3.667,3.667,0,0,0,2.567,29.3a2.472,2.472,0,0,0,2.146,1.579,1.05,1.05,0,0,1,1.055.791,43.149,43.149,0,0,0,5.822,11.3,13.869,13.869,0,0,0,3.586,3.416,7.766,7.766,0,0,0,9.086-.317A13.442,13.442,0,0,0,26.7,43.782a.957.957,0,0,1,.841-.394c.671.022,1.346.009,2.021.009.21,0,.4.031.2.3-1.918,2.616-4.123,4.892-7.334,5.858a9.9,9.9,0,0,1-9.006-1.663,20.4,20.4,0,0,1-5.357-6.175,50.711,50.711,0,0,1-3.85-8.085.916.916,0,0,0-.635-.6C-.358,31.727-.715,27.1.912,24.881a1.148,1.148,0,0,0,.206-.733c0-2.348-.125-4.709.027-7.047.4-6.032,2.8-10.991,8.08-14.278A19.283,19.283,0,0,1,17.167.206,29.6,29.6,0,0,1,20.556,0,1.275,1.275,0,0,1,21.6.425c.429.474.917.9,1.35,1.368a1.251,1.251,0,0,0,.952.4,14.877,14.877,0,0,1,8.957,3.126,13.582,13.582,0,0,1,4.507,7.293,19.845,19.845,0,0,1,.7,5.451c-.013,1.051,0,2.1-.009,3.153,0,.313.067.456.425.5a3.254,3.254,0,0,1,2.831,3.269c.009,1.444.009,2.893,0,4.338a3.244,3.244,0,0,1-2.746,3.242c-.443.072-.528.241-.51.631a8.48,8.48,0,0,1-2.343,6.435,8.312,8.312,0,0,1-6.028,2.728c-1.444.036-2.893.018-4.338,0a.687.687,0,0,0-.693.411,3.164,3.164,0,0,1-2.916,1.766c-.756,0-1.511.009-2.267,0a3.286,3.286,0,0,1,.022-6.569c.756-.009,1.511,0,2.267,0a3.14,3.14,0,0,1,2.88,1.739.705.705,0,0,0,.729.434c1.61-.054,3.22.067,4.825-.089a6.335,6.335,0,0,0,5.545-5.608c.027-.344.063-.689.076-1.028,0-.121.058-.3-.1-.349a.463.463,0,0,0-.411.116.911.911,0,0,0-.237.425c-.389.939-.814,1.869-1.158,2.826a3.538,3.538,0,0,1-1.883,1.976,6.231,6.231,0,0,1-1.529.541c-.112.022-.237.089-.326,0-.125-.125,0-.246.054-.353.648-1.274,1.274-2.558,1.824-3.877.425-1.015.868-2.026,1.234-3.063a.949.949,0,0,1,.975-.774c.353,0,.492-.139.483-.505q-.027-1.281,0-2.562c.009-.407-.139-.4-.429-.241q-.543.3-1.1.55a1.134,1.134,0,0,1-1.726-1.082c-.009-1.216,0-2.433,0-3.649ZM3.255,20.163c0,1.57.009,2.638,0,3.7a.57.57,0,0,0,.376.613c.452.2.894.416,1.337.626.487.233.492.233.492-.322V18.571A1.083,1.083,0,0,1,6.529,17.35c.554-.072,1.109-.121,1.663-.179a34.575,34.575,0,0,0,9.167-2.182,14.537,14.537,0,0,0,5.706-3.756,1.119,1.119,0,0,1,1.847.183,12.611,12.611,0,0,0,1.811,2.2,17.134,17.134,0,0,0,6.005,3.68,1.217,1.217,0,0,1,.988,1.431v2.611q0,1.724,0,3.448c0,.139-.1.362.157.394.317.045.845-.447.85-.783q.007-.765,0-1.529a1.067,1.067,0,0,1,.765-1.131c.291-.094.322-.268.322-.514-.009-.823,0-1.641,0-2.464a19.575,19.575,0,0,0-.876-6.31,10.836,10.836,0,0,0-5.317-6.56A15.185,15.185,0,0,0,22.8,4.418a1.079,1.079,0,0,1-.818-.358c-.5-.523-1.02-1.024-1.529-1.538a.686.686,0,0,0-.55-.268,22.785,22.785,0,0,0-5.482.859C8.9,4.794,5.223,8.273,3.774,13.952a22.772,22.772,0,0,0-.523,6.2ZM36.972,27.1v2.8c0,.2-.018.394.25.465a1.351,1.351,0,0,0,1.851-1.391c0-1.149,0-2.294,0-3.443,0-1.274-.38-1.628-1.655-1.6-.349,0-.456.13-.447.465.013.9,0,1.8,0,2.705Zm-16.3,15.2c.344,0,.693.022,1.033,0a1.078,1.078,0,0,0,1.073-1.015A1.065,1.065,0,0,0,21.7,40.223c-.689-.031-1.382-.031-2.066,0a1.066,1.066,0,0,0-1.073,1.015A1.08,1.08,0,0,0,19.64,42.3c.344.027.689,0,1.033,0Z" fill="#fff"/>
    </g>
  </g>
</svg>
