<svg id="icone-menu-mobile" xmlns="http://www.w3.org/2000/svg" width="30" height="30" viewBox="0 0 30 30">
  <g id="Grupo_4063" data-name="Grupo 4063" transform="translate(11647 8628.5)">
    <path id="Caminho_483" data-name="Caminho 483" d="M.341,2.994q7.326-.007,14.646,0H29.665c.27,0,.335-.054.335-.239Q29.981,1.478,30,.2c0-.158-.058-.207-.29-.207Q15,0,.29,0C.051,0,0,.052,0,.205Q.019,1.482,0,2.759c0,.189.071.234.335.234Z" transform="translate(-11647 -8623.493)" fill="#fff"/>
    <path id="Caminho_1325" data-name="Caminho 1325" d="M.341,2.994q7.326-.007,14.646,0H29.665c.27,0,.335-.054.335-.239Q29.981,1.478,30,.2c0-.158-.058-.207-.29-.207Q15,0,.29,0C.051,0,0,.052,0,.205Q.019,1.482,0,2.759c0,.189.071.234.335.234Z" transform="translate(-11647 -8614.493)" fill="#fff"/>
    <path id="Caminho_1326" data-name="Caminho 1326" d="M.341,2.994q7.326-.007,14.646,0H29.665c.27,0,.335-.054.335-.239Q29.981,1.478,30,.2c0-.158-.058-.207-.29-.207Q15,0,.29,0C.051,0,0,.052,0,.205Q.019,1.482,0,2.759c0,.189.071.234.335.234Z" transform="translate(-11647 -8605.493)" fill="#fff"/>
  </g>
  <rect id="Retângulo_1140" data-name="Retângulo 1140" width="30" height="30" fill="none"/>
</svg>
