<svg id="icone-sair" xmlns="http://www.w3.org/2000/svg" xmlns:xlink="http://www.w3.org/1999/xlink" width="23" height="23" viewBox="0 0 23 23">
  <defs>
    <clipPath id="clip-path">
      <rect id="Ret칙ngulo_71" data-name="Ret칙ngulo 71" width="23" height="23" transform="translate(21 417)" fill="#fff"/>
    </clipPath>
  </defs>
  <g id="Grupo_de_m치scara_14" data-name="Grupo de m치scara 14" transform="translate(-21 -417)" clip-path="url(#clip-path)">
    <g id="Camada_1" data-name="Camada 1" transform="translate(21 417)">
      <g id="Grupo_33" data-name="Grupo 33">
        <path id="Caminho_63" data-name="Caminho 63" d="M1.1,23a1.521,1.521,0,0,1-.822-.539A1.344,1.344,0,0,1,0,21.644V1.359A1.372,1.372,0,0,1,1.364,0H17.053a1.37,1.37,0,0,1,1.364,1.356c.005,1.169,0,2.341,0,3.51,0,.053.021.128-.029.155-.069.037-.107-.045-.149-.085-.214-.211-.422-.427-.638-.633a.412.412,0,0,1-.133-.334c.005-.8,0-1.6,0-2.4,0-.462-.155-.619-.611-.619H1.564C1.105.948.95,1.1.95,1.564V21.452c0,.448.157.609.6.609H16.864c.443,0,.6-.16.6-.609,0-.787.005-1.575,0-2.36a.542.542,0,0,1,.187-.438c.2-.184.384-.382.579-.574.043-.043.08-.12.147-.1s.04.109.04.168v1.38c0,.633-.024,1.268.005,1.9A1.462,1.462,0,0,1,17.315,23H1.1Z" fill="#fff"/>
        <path id="Caminho_64" data-name="Caminho 64" d="M25.229,13.545l-4.644,4.631c-.168.168-.334.336-.5.5a.477.477,0,0,1-.721.035.47.47,0,0,1,.048-.718q2.006-2.01,4.017-4.017c.04-.04.075-.08.125-.131a.376.376,0,0,0-.243-.032H10.25c-.083,0-.168,0-.251,0a.472.472,0,0,1-.005-.942c.083-.005.168,0,.251,0h13.3a.416.416,0,0,0-.144-.19q-1.942-1.946-3.884-3.886c-.053-.053-.112-.107-.16-.165A.475.475,0,0,1,20,7.935a1.6,1.6,0,0,1,.2.182l4.925,4.914c.035.035.072.067.107.1v.419Z" transform="translate(-2.229 -1.83)" fill="#fff"/>
      </g>
    </g>
  </g>
</svg>
