<svg id="icone-nota-fiscal" xmlns="http://www.w3.org/2000/svg" xmlns:xlink="http://www.w3.org/1999/xlink" width="80" height="80" viewBox="0 0 80 80">
  <defs>
    <clipPath id="clip-path">
      <rect id="Ret칙ngulo_76" data-name="Ret칙ngulo 76" width="80" height="80" transform="translate(207 276)" fill="#ef7e37" stroke="#707070" stroke-width="1"/>
    </clipPath>
  </defs>
  <g id="Grupo_de_m치scara_17" data-name="Grupo de m치scara 17" transform="translate(-207 -276)" clip-path="url(#clip-path)">
    <g id="Camada_1" data-name="Camada 1" transform="translate(207 276)">
      <g id="Grupo_45" data-name="Grupo 45">
        <path id="Caminho_78" data-name="Caminho 78" d="M0,39.908V1.27A1.128,1.128,0,0,1,1.282,0H78.718a1.125,1.125,0,0,1,1.264,1.282q0,28.781.018,57.562a2.354,2.354,0,0,1-.767,1.816q-9.311,9.265-18.58,18.58A2.357,2.357,0,0,1,58.838,80q-28.781-.028-57.562-.018A1.128,1.128,0,0,1,0,78.706Q0,59.31,0,39.908ZM3.926,40V74.909a1.009,1.009,0,0,0,1.123,1.153q25.45,0,50.894.018c.871,0,1.129-.227,1.123-1.11-.037-5.557-.018-11.121-.018-16.678,0-1.245,0-1.245,1.215-1.245H74.854a1.082,1.082,0,0,0,1.208-1.239V5.171a1.088,1.088,0,0,0-1.208-1.245H5.122a1.044,1.044,0,0,0-1.2,1.165V40ZM72.848,60.972H61.6c-.583,0-.638.325-.638.779.006,3.595,0,7.189.006,10.79,0,.135-.037.288,0,.319,3.963-3.963,7.907-7.913,11.875-11.882Z" fill="#ef7e37"/>
        <path id="Caminho_79" data-name="Caminho 79" d="M41.037,20.917H61.684c1.184,0,1.184,0,1.19,1.19,0,.662-.025,1.325,0,1.987.025.564-.221.791-.767.748-.172-.012-.344,0-.515,0h-41.3a1.131,1.131,0,0,1-1.276-1.276c0-.632.025-1.27,0-1.9-.025-.564.221-.761.767-.754,1.7.018,3.4,0,5.1,0H41.037Z" fill="#ef7e37"/>
        <path id="Caminho_80" data-name="Caminho 80" d="M40.945,36.252H20.212c-1.19,0-1.19,0-1.2-1.184,0-.693.012-1.38,0-2.073-.012-.478.2-.687.675-.662.2.012.4,0,.607,0H61.6c1.276,0,1.294,0,1.276,1.27-.018.828.35,1.871-.166,2.429-.564.607-1.638.215-2.484.215q-9.633.028-19.267.012Z" fill="#ef7e37"/>
        <path id="Caminho_81" data-name="Caminho 81" d="M40.951,47.661H20.218c-1.2,0-1.2,0-1.2-1.178,0-.693.012-1.38,0-2.073-.012-.472.19-.693.669-.669.2.012.4,0,.607,0h41.3c1.282,0,1.313,0,1.276,1.264-.025.846.386,1.92-.215,2.484-.552.515-1.6.166-2.429.166q-9.633.018-19.267.006Z" fill="#ef7e37"/>
      </g>
    </g>
  </g>
</svg>
