<svg id="icone-filtro" xmlns="http://www.w3.org/2000/svg" xmlns:xlink="http://www.w3.org/1999/xlink" width="30" height="30" viewBox="0 0 30 30">
  <defs>
    <clipPath id="clip-path">
      <rect id="Ret칙ngulo_2073" data-name="Ret칙ngulo 2073" width="30" height="30" transform="translate(16 36)" fill="#fff" stroke="#707070" stroke-width="1"/>
    </clipPath>
  </defs>
  <g id="Grupo_de_m치scara_2745" data-name="Grupo de m치scara 2745" transform="translate(-16 -36)" clip-path="url(#clip-path)">
    <g id="Camada_1" data-name="Camada 1" transform="translate(16.001 39.268)">
      <g id="Grupo_4460" data-name="Grupo 4460">
        <path id="Caminho_1350" data-name="Caminho 1350" d="M23.56,3.294c-1.892,0-3.785,0-5.678,0a.4.4,0,0,0-.452.3,2.61,2.61,0,0,1-4.849.015.421.421,0,0,0-.47-.32Q6.448,3.3.785,3.294c-.483,0-.771-.246-.779-.655a.655.655,0,0,1,.63-.684c.108-.007.217,0,.325,0q5.559,0,11.119.006a.459.459,0,0,0,.513-.347,2.609,2.609,0,0,1,4.826.012.439.439,0,0,0,.491.335q5.648-.013,11.3-.005c.492,0,.778.234.793.64a.654.654,0,0,1-.7.7c-.936.005-1.873,0-2.809,0H23.56Zm-9.8-.667a1.244,1.244,0,1,0,2.487.005,1.244,1.244,0,1,0-2.487-.005Z" fill="#fff"/>
        <path id="Caminho_1351" data-name="Caminho 1351" d="M11.01,12.4H.779c-.5,0-.8-.281-.771-.72a.65.65,0,0,1,.6-.617c.118-.009.237,0,.355,0q10.1,0,20.2.005a.476.476,0,0,0,.541-.35,2.607,2.607,0,0,1,4.824.02.434.434,0,0,0,.494.331c.739-.018,1.478-.008,2.218-.005.474,0,.761.26.758.676s-.289.664-.768.666c-.759,0-1.518.006-2.277,0a.35.35,0,0,0-.4.255,2.608,2.608,0,0,1-4.89,0c-.088-.232-.224-.254-.427-.254q-5.115.005-10.231,0Zm11.859-.668A1.244,1.244,0,1,0,24.1,10.457a1.246,1.246,0,0,0-1.232,1.279Z" fill="#fff"/>
        <path id="Caminho_1352" data-name="Caminho 1352" d="M19.97,21.514q-4.613,0-9.226-.005a.42.42,0,0,0-.474.314,2.61,2.61,0,0,1-4.849,0,.419.419,0,0,0-.478-.31c-1.41.01-2.819,0-4.228.006A.647.647,0,0,1,.057,21.1a.649.649,0,0,1,.121-.717.72.72,0,0,1,.588-.218c1.4,0,2.8,0,4.2.007a.4.4,0,0,0,.452-.3,2.609,2.609,0,0,1,4.848-.017.437.437,0,0,0,.5.321q9.138-.009,18.274,0c.118,0,.237-.005.355,0a.67.67,0,0,1,.008,1.333c-.108.01-.217.005-.325.005H19.969ZM6.6,20.829a1.244,1.244,0,1,0,1.249-1.262A1.247,1.247,0,0,0,6.6,20.829Z" fill="#fff"/>
      </g>
    </g>
  </g>
</svg>
