<svg id="icone-boleto" xmlns="http://www.w3.org/2000/svg" xmlns:xlink="http://www.w3.org/1999/xlink" width="80" height="80" viewBox="0 0 80 80">
  <defs>
    <clipPath id="clip-path">
      <rect id="Ret칙ngulo_82" data-name="Ret칙ngulo 82" width="80" height="80" transform="translate(2134 562)" fill="#ef7e37" stroke="#707070" stroke-width="1"/>
    </clipPath>
  </defs>
  <g id="Grupo_de_m치scara_21" data-name="Grupo de m치scara 21" transform="translate(-2134 -562)" clip-path="url(#clip-path)">
    <g id="Camada_1-2" transform="translate(2136.677 562.041)">
      <g id="Grupo_56" data-name="Grupo 56">
        <path id="Caminho_111" data-name="Caminho 111" d="M40.8,74.043c-.219,0-.329.055-.383,0a2.241,2.241,0,0,0-2.9.11,2.966,2.966,0,0,1-3.724,0,2.474,2.474,0,0,0-3.122,0,2.889,2.889,0,0,1-3.669,0,2.415,2.415,0,0,0-3.176,0A2.9,2.9,0,0,1,20.1,74.1a2.259,2.259,0,0,0-3.012,0,2.973,2.973,0,0,1-3.779,0,5.523,5.523,0,0,0-.986-.493,1,1,0,0,0-1.1,0c-.6.329-1.26.6-1.862.931a1.73,1.73,0,0,1-1.972-.055,3.874,3.874,0,0,0-4.874,0c-1.369.876-2.684-.055-2.684-1.7C0,49.234,0,25.63,0,2.026,0,.329,1.314-.548,2.738.383A3.791,3.791,0,0,0,7.5.329a1.645,1.645,0,0,1,2.026,0,3.721,3.721,0,0,0,4.765,0,1.726,1.726,0,0,1,2.026,0,3.581,3.581,0,0,0,4.71,0,1.649,1.649,0,0,1,2.081,0,3.646,3.646,0,0,0,4.71,0,1.649,1.649,0,0,1,2.081,0,3.646,3.646,0,0,0,4.71,0,1.725,1.725,0,0,1,2.081,0,3.5,3.5,0,0,0,4.6,0,1.807,1.807,0,0,1,2.191,0,3.5,3.5,0,0,0,4.6,0,1.808,1.808,0,0,1,2.191,0,3.562,3.562,0,0,0,4.6,0,1.808,1.808,0,0,1,2.191,0,3.7,3.7,0,0,0,4.546.055c1.533-.986,2.848-.11,2.848,1.752V42.772c0,.986,0,.986-.986.712a5.189,5.189,0,0,0-1.588-.383c-.821-.055-.986-.493-.986-1.2V5.805c0-1.041,0-1.041-.931-.657a1.845,1.845,0,0,1-1.7-.11,3.721,3.721,0,0,0-4.765-.055,1.81,1.81,0,0,1-2.191-.055,3.471,3.471,0,0,0-4.436-.055,1.981,1.981,0,0,1-2.519-.055,3.23,3.23,0,0,0-4.162,0,2.3,2.3,0,0,1-2.738,0,3.072,3.072,0,0,0-4,0,2.225,2.225,0,0,1-2.793,0,3.063,3.063,0,0,0-3.943,0,2.464,2.464,0,0,1-2.957,0,2.905,2.905,0,0,0-3.779,0,2.466,2.466,0,0,1-3.012,0,2.905,2.905,0,0,0-3.779,0,2.466,2.466,0,0,1-3.012,0,2.832,2.832,0,0,0-3.724,0,2.1,2.1,0,0,1-2.519.11C3.615,4.71,3.5,4.819,3.5,5.2V69.826c0,.329.11.493.383.274a2.556,2.556,0,0,1,2.957.219c.383.219.767.383,1.15.6a.9.9,0,0,0,1.041,0c.657-.329,1.314-.657,1.917-.986a1.881,1.881,0,0,1,1.862,0,21.011,21.011,0,0,1,1.917.986,1.087,1.087,0,0,0,1.15,0c.493-.274,1.041-.493,1.533-.767a2.22,2.22,0,0,1,2.629.055,3.155,3.155,0,0,0,4.107,0,2.22,2.22,0,0,1,2.738,0,3.072,3.072,0,0,0,4,0,2.231,2.231,0,0,1,2.848.055,3.044,3.044,0,0,0,3.779.055c.986-.657,1.041-.548,1.479.548.548,1.041,1.15,2.081,1.807,3.176Z" fill="#ef7e37"/>
        <path id="Caminho_112" data-name="Caminho 112" d="M57.723,79.958A17.06,17.06,0,1,1,74.81,62.98,17.028,17.028,0,0,1,57.723,79.958Zm.055-3.5A13.527,13.527,0,0,0,57.832,49.4a13.527,13.527,0,0,0-.055,27.054Z" fill="#ef7e37"/>
        <path id="Caminho_113" data-name="Caminho 113" d="M24.645,18.839h-12.6a1.758,1.758,0,1,1-.11-3.5H37.186a1.765,1.765,0,0,1,1.972,1.533A1.691,1.691,0,0,1,37.3,18.785c-4.217.055-8.434.055-12.651.055Z" fill="#ef7e37"/>
        <path id="Caminho_114" data-name="Caminho 114" d="M24.645,39.212H11.994A1.662,1.662,0,0,1,10.186,37.9a1.806,1.806,0,0,1,1.041-2.026,2.75,2.75,0,0,1,1.15-.11H37.022c1.369,0,2.136.657,2.136,1.752s-.767,1.752-2.136,1.752c-4.107-.055-8.215-.055-12.377-.055Z" fill="#ef7e37"/>
        <path id="Caminho_115" data-name="Caminho 115" d="M23,59.585H12.048a1.726,1.726,0,0,1-1.7-2.464,1.67,1.67,0,0,1,1.588-1.041H34.064a1.7,1.7,0,0,1,1.752,1.752,1.73,1.73,0,0,1-1.752,1.752Z" fill="#ef7e37"/>
        <path id="Caminho_116" data-name="Caminho 116" d="M21.3,29.026h-9.31a1.619,1.619,0,0,1-1.643-1.041,1.67,1.67,0,0,1,.274-1.862,1.616,1.616,0,0,1,1.369-.6H30.669a1.753,1.753,0,1,1-.055,3.505Z" fill="#ef7e37"/>
        <path id="Caminho_117" data-name="Caminho 117" d="M50.111,18.839H47.537a1.667,1.667,0,0,1-1.752-1.752,1.7,1.7,0,0,1,1.752-1.753h5.148a1.7,1.7,0,0,1,1.752,1.753,1.64,1.64,0,0,1-1.7,1.7c-.876.055-1.753.055-2.629.055Z" fill="#ef7e37"/>
        <path id="Caminho_118" data-name="Caminho 118" d="M50.165,25.521H52.63a1.682,1.682,0,0,1,1.807,1.753,1.73,1.73,0,0,1-1.752,1.753H47.591a1.743,1.743,0,0,1-1.807-1.753,1.682,1.682,0,0,1,1.807-1.753Z" fill="#ef7e37"/>
        <path id="Caminho_119" data-name="Caminho 119" d="M50.111,39.212H47.537a1.667,1.667,0,0,1-1.752-1.752,1.7,1.7,0,0,1,1.752-1.752h5.148a1.7,1.7,0,0,1,1.752,1.752,1.64,1.64,0,0,1-1.7,1.7c-.876.055-1.753.055-2.629.055Z" fill="#ef7e37"/>
        <path id="Caminho_120" data-name="Caminho 120" d="M13.691,47.646a1.752,1.752,0,1,1-1.752-1.752A1.7,1.7,0,0,1,13.691,47.646Z" fill="#ef7e37"/>
        <path id="Caminho_121" data-name="Caminho 121" d="M20.482,47.646a1.753,1.753,0,1,1-1.753-1.752A1.7,1.7,0,0,1,20.482,47.646Z" fill="#ef7e37"/>
        <path id="Caminho_122" data-name="Caminho 122" d="M25.466,49.4a1.753,1.753,0,1,1,1.752-1.753A1.639,1.639,0,0,1,25.466,49.4Z" fill="#ef7e37"/>
        <path id="Caminho_123" data-name="Caminho 123" d="M32.312,45.894a1.752,1.752,0,1,1-1.752,1.752A1.7,1.7,0,0,1,32.312,45.894Z" fill="#ef7e37"/>
        <path id="Caminho_124" data-name="Caminho 124" d="M40.855,47.591a1.725,1.725,0,1,1-1.752-1.7A1.685,1.685,0,0,1,40.855,47.591Z" fill="#ef7e37"/>
        <g id="Grupo_55" data-name="Grupo 55">
          <path id="Caminho_125" data-name="Caminho 125" d="M58.928,67.526H56.682a.608.608,0,0,1-.6-.6V54.054a.608.608,0,0,1,.6-.6h2.245a.608.608,0,0,1,.6.6v12.87A.608.608,0,0,1,58.928,67.526Z" fill="#ef7e37"/>
          <path id="Caminho_126" data-name="Caminho 126" d="M58.928,72.4H56.682a.608.608,0,0,1-.6-.6V69.552a.608.608,0,0,1,.6-.6h2.245a.608.608,0,0,1,.6.6V71.8A.608.608,0,0,1,58.928,72.4Z" fill="#ef7e37"/>
        </g>
      </g>
    </g>
  </g>
</svg>
