<svg id="icon-senha" xmlns="http://www.w3.org/2000/svg" xmlns:xlink="http://www.w3.org/1999/xlink" width="23" height="23" viewBox="0 0 23 23">
  <defs>
    <clipPath id="clip-path">
      <rect id="Ret칙ngulo_52" data-name="Ret칙ngulo 52" width="23" height="23" transform="translate(2086 170)" fill="#79ba50" stroke="#707070" stroke-width="1"/>
    </clipPath>
  </defs>
  <g id="Grupo_de_m치scara_5" data-name="Grupo de m치scara 5" transform="translate(-2086 -170)" clip-path="url(#clip-path)">
    <g id="Camada_1" data-name="Camada 1" transform="translate(2086.871 170.001)">
      <g id="Grupo_10" data-name="Grupo 10">
        <path id="Caminho_41" data-name="Caminho 41" d="M10.605,23H2.883a2.82,2.82,0,0,1-1.96-.693,2.7,2.7,0,0,1-.916-2.1c-.007-2.865-.012-5.73,0-8.594a2.693,2.693,0,0,1,2.826-2.8c.7,0,.708,0,.7-.7a9.251,9.251,0,0,1,.3-3.048A6.89,6.89,0,0,1,9.5.1a7.025,7.025,0,0,1,7.969,5.119,7.082,7.082,0,0,1,.253,1.771c.011.5.015,1.009,0,1.513-.008.254.084.323.326.315a4.625,4.625,0,0,1,1.022.044,2.69,2.69,0,0,1,2.159,2.368c.023.265.032.528.032.794v8.081a2.83,2.83,0,0,1-.718,2A2.785,2.785,0,0,1,18.38,23H10.606Zm.025-1.847h7.7a3.392,3.392,0,0,0,.41-.015.759.759,0,0,0,.657-.657,2.974,2.974,0,0,0,.017-.384V11.707c0-.1,0-.2-.007-.308a.8.8,0,0,0-.767-.754c-.12-.007-.239,0-.359,0H4.012c-.444,0-.89,0-1.334,0a.823.823,0,0,0-.787.553,1.345,1.345,0,0,0-.041.432v8.543a2.279,2.279,0,0,0,.015.307.765.765,0,0,0,.657.659,3.133,3.133,0,0,0,.41.017h7.7Zm0-12.337h5.028c.125,0,.246,0,.243-.177a18.067,18.067,0,0,0-.061-2.331A5.267,5.267,0,0,0,5.5,5.9a13.213,13.213,0,0,0-.143,2.6c-.008.254.081.315.322.314,1.65-.01,3.3,0,4.951,0Z" fill="#79ba50"/>
        <path id="Caminho_42" data-name="Caminho 42" d="M10.62,17.684A1.789,1.789,0,1,1,12.43,15.9,1.8,1.8,0,0,1,10.62,17.684Z" fill="#79ba50"/>
        <path id="Caminho_43" data-name="Caminho 43" d="M15.919,17.684a1.8,1.8,0,0,1-1.793-1.771,1.8,1.8,0,1,1,3.6-.015A1.794,1.794,0,0,1,15.919,17.684Z" fill="#79ba50"/>
        <path id="Caminho_44" data-name="Caminho 44" d="M5.343,17.684a1.789,1.789,0,1,1,1.793-1.771A1.8,1.8,0,0,1,5.343,17.684Z" fill="#79ba50"/>
      </g>
    </g>
  </g>
</svg>
