<svg id="logo" xmlns="http://www.w3.org/2000/svg" xmlns:xlink="http://www.w3.org/1999/xlink" width="400" height="82" viewBox="0 0 400 82">
  <defs>
    <clipPath id="clip-path">
      <rect id="Ret칙ngulo_1" data-name="Ret칙ngulo 1" width="400" height="82" transform="translate(707.29 242)" fill="#fff" stroke="#707070" stroke-width="1"/>
    </clipPath>
  </defs>
  <g id="Grupo_de_m치scara_1" data-name="Grupo de m치scara 1" transform="translate(-707.29 -242)" clip-path="url(#clip-path)">
    <g id="logo-atlantica-principal" transform="translate(707.878 242.144)">
      <ellipse id="Elipse_1" data-name="Elipse 1" cx="41.115" cy="41.131" rx="41.115" ry="41.131" transform="translate(0 0)" fill="#fff"/>
      <path id="Caminho_1" d="M41.053,0a41.151,41.151,0,0,1,29.8,69.641C77.092,41.2,61.5,14.073,38.442,3.772a39.181,39.181,0,0,0-7.469-2.466A39.208,39.208,0,0,1,41.053,0M8.349,65.941A41.067,41.067,0,0,1,30.393,1.451c3.046,11.9,2.03,25.97-3.626,39.536A64.116,64.116,0,0,1,8.349,65.941Z" transform="translate(-0.01 0)" fill="#1b824c" fill-rule="evenodd"/>
      <path id="Caminho_2" d="M60.944,80.9A41.191,41.191,0,0,1,26.5,76.546c6.671-5.876,10.659-8.85,16.315-22.633S50.067,23.735,38.175,1.9c28.5,22.27,29.8,53.609,25.525,69.5s-1.6,6.529-2.756,9.5" transform="translate(-7.284 -0.521)" fill="#79ba50" fill-rule="evenodd"/>
      <path id="Caminho_3" d="M81.746,77.327a33.658,33.658,0,0,0-16.678-16.54c-8.629-3.99-20.884-6.093-26.83-2.176-7.106,4.643-3.481,14.146,3.481,15.524,5.729,1.161,8.411-3.047,15.953-3.7,7.686-.8,14.865-.58,24.074,6.891" transform="translate(-9.45 -15.521)" fill="#ef7e37" fill-rule="evenodd"/>
      <path id="Caminho_6" data-name="Caminho 6" d="M534.946,59.6l1.305,14H528.2l-.653-7.617H514.86l-5.076,7.69H501.3L510.437,59.6Z" transform="translate(-137.791 -16.365)" fill="#1b824c" fill-rule="evenodd"/>
      <path id="Caminho_7" data-name="Caminho 7" d="M530.183,39.321l-6.671,10.809H515.1L528.442,29.6h8.267l1.886,20.457-7.687.073Z" transform="translate(-141.584 -8.127)" fill="#1b824c" fill-rule="evenodd"/>
      <path id="Caminho_8" data-name="Caminho 8" d="M461.47,59.7a7.846,7.846,0,0,0,1.813,5.15c1.378,1.523,3.408,2.249,6.091,2.249a15.179,15.179,0,0,0,6.381-1.451,28.362,28.362,0,0,0,6.671-4.5l4.351,5.586A28.67,28.67,0,0,1,478,72.612a25.808,25.808,0,0,1-9.934,1.959c-5.221,0-9.282-1.378-12.183-4.207-2.755-2.612-4.061-6.166-3.988-10.591l9.571-.073Z" transform="translate(-124.211 -16.392)" fill="#1b824c" fill-rule="evenodd"/>
      <path id="Caminho_9" data-name="Caminho 9" d="M492.172,35.054l-5.656,5.3a19.577,19.577,0,0,0-5.366-3.337A15.71,15.71,0,0,0,471,36.65a9.637,9.637,0,0,0-3.625,1.886,15.3,15.3,0,0,0-4.133,5.005,15.756,15.756,0,0,0-1.74,6.239v.145H452A22.393,22.393,0,0,1,460.629,33.6a22.228,22.228,0,0,1,6.816-3.7,24.52,24.52,0,0,1,7.977-1.306,25.9,25.9,0,0,1,9.354,1.6,21.849,21.849,0,0,1,7.4,4.86Z" transform="translate(-124.24 -7.85)" fill="#1b824c" fill-rule="evenodd"/>
      <path id="Caminho_10" data-name="Caminho 10" d="M435.322,59.8l-4.713,14H421.4l4.713-14Z" transform="translate(-115.829 -16.419)" fill="#1b824c" fill-rule="evenodd"/>
      <path id="Caminho_11" data-name="Caminho 11" d="M435.461,29.8h9.209l-6.961,20.529H428.5Z" transform="translate(-117.781 -8.182)" fill="#1b824c" fill-rule="evenodd"/>
      <path id="Caminho_12" data-name="Caminho 12" d="M397.295,59.9l-4.713,14H383.3l4.786-14Z" transform="translate(-105.357 -16.447)" fill="#1b824c" fill-rule="evenodd"/>
      <path id="Caminho_13" data-name="Caminho 13" d="M381.02,29.873l34.807-.073-2.393,6.891H401.107l-4.641,13.638-9.282.073,4.641-13.71-13.125.073Z" transform="translate(-104.092 -8.182)" fill="#1b824c" fill-rule="evenodd"/>
      <path id="Caminho_14" data-name="Caminho 14" d="M322.2,60l-4.713,14.073H309.8L314.513,60Z" transform="translate(-85.154 -16.474)" fill="#1b824c" fill-rule="evenodd"/>
      <path id="Caminho_15" data-name="Caminho 15" d="M353.9,50.429,360.862,29.9h7.686l-6.961,20.529Z" transform="translate(-97.276 -8.21)" fill="#1b824c" fill-rule="evenodd"/>
      <path id="Caminho_16" data-name="Caminho 16" d="M346.474,59.973,347.78,63.6l1.232-3.627L356.7,59.9l-4.713,14.073h-9.354l-4.931-14h8.774Z" transform="translate(-92.823 -16.447)" fill="#1b824c" fill-rule="evenodd"/>
      <path id="Caminho_17" data-name="Caminho 17" d="M323.862,30h9.427l7.034,20.457-8.774.073-3.553-10.083-3.408,10.083H316.9Z" transform="translate(-87.106 -8.237)" fill="#1b824c" fill-rule="evenodd"/>
      <path id="Caminho_18" data-name="Caminho 18" d="M290.541,13H296.7l2.9,8.923H296.2l-3.118-5.005L286.771,22H283Z" transform="translate(-77.788 -3.569)" fill="#1b824c" fill-rule="evenodd"/>
      <path id="Caminho_19" data-name="Caminho 19" d="M289.846,60.1l1.378,14h-8.049l-.725-7.617H269.76l-5,7.689H256.2L265.409,60.1Z" transform="translate(-70.421 -16.502)" fill="#1b824c" fill-rule="evenodd"/>
      <path id="Caminho_20" data-name="Caminho 20" d="M285.083,39.821l-6.671,10.809H270L283.415,30.1h8.194l1.958,20.457-7.687.073Z" transform="translate(-74.214 -8.265)" fill="#1b824c" fill-rule="evenodd"/>
      <path id="Caminho_21" data-name="Caminho 21" d="M233.7,60.2l-2.466,7.182,15.446-.073L244.282,74.2l-24.582.073L224.486,60.2Z" transform="translate(-60.388 -16.529)" fill="#1b824c" fill-rule="evenodd"/>
      <path id="Caminho_22" data-name="Caminho 22" d="M233.761,30.2h9.209l-6.961,20.529H226.8Z" transform="translate(-62.34 -8.292)" fill="#1b824c" fill-rule="evenodd"/>
      <path id="Caminho_23" data-name="Caminho 23" d="M195.623,60.3l-4.714,14H181.7l4.713-14h9.209Z" transform="translate(-49.943 -16.557)" fill="#1b824c" fill-rule="evenodd"/>
      <path id="Caminho_24" data-name="Caminho 24" d="M179.32,30.273l34.806-.073-2.32,6.891h-12.4l-4.641,13.638-9.209.073,4.568-13.638H177Z" transform="translate(-48.652 -8.292)" fill="#1b824c" fill-rule="evenodd"/>
      <path id="Caminho_25" data-name="Caminho 25" d="M154.146,60.3l1.305,14.073H147.4l-.725-7.617h-12.69l-5,7.617-8.484.072,9.137-14.073Z" transform="translate(-33.122 -16.557)" fill="#1b824c" fill-rule="evenodd"/>
      <path id="Caminho_26" data-name="Caminho 26" d="M149.283,40.121l-6.671,10.809H134.2L147.615,30.4h8.194l1.958,20.457-7.759.073Z" transform="translate(-36.887 -8.347)" fill="#1b824c" fill-rule="evenodd"/>
      <path id="Caminho_27" data-name="Caminho 27" d="M542.531,88a4.774,4.774,0,0,0-2.176.508,5.5,5.5,0,0,0-1.6,1.306,6.958,6.958,0,0,0-.942,1.959,6.045,6.045,0,0,0-.218,1.6,4.614,4.614,0,0,0,.362,1.668,3.063,3.063,0,0,0,1.161,1.378,4.1,4.1,0,0,0,2.03.58,4.665,4.665,0,0,0,2.538-.725,5.023,5.023,0,0,0,1.74-1.959,5.65,5.65,0,0,0,.653-2.684v-.435A3.3,3.3,0,0,0,542.531,88Zm1.377,5.586a3.652,3.652,0,0,1-1.088,1.451,2.866,2.866,0,0,1-1.377.508,2.023,2.023,0,0,1-1.45-.58,2.344,2.344,0,0,1-.581-1.523h0a5.053,5.053,0,0,1,.8-2.684,2.5,2.5,0,0,1,2.1-1.233,1.982,1.982,0,0,1,1.378.58,2.537,2.537,0,0,1,.58,1.6A3.388,3.388,0,0,1,543.909,93.582Z" transform="translate(-147.769 -24.159)" fill="#ef7e37"/>
      <path id="Caminho_28" data-name="Caminho 28" d="M525.8,96.905l1.74-8.705h6.454l-.29,1.451h-4.641l-.435,2.031H533.2l-.363,1.378h-4.5l-.508,2.394h5.076l-.29,1.451Z" transform="translate(-144.525 -24.218)" fill="#ef7e37"/>
      <path id="Caminho_29" data-name="Caminho 29" d="M515.6,96.905l1.813-8.705h1.74l-1.45,7.254h4.424l-.291,1.451Z" transform="translate(-141.722 -24.218)" fill="#ef7e37"/>
      <path id="Caminho_30" data-name="Caminho 30" d="M510.833,85.1h1.813l-1.958,1.814H509.6Z" transform="translate(-140.073 -23.366)" fill="#ef7e37"/>
      <path id="Caminho_31" data-name="Caminho 31" d="M508.13,88.1a4.772,4.772,0,0,0-2.175.508,5.49,5.49,0,0,0-1.6,1.306,6.972,6.972,0,0,0-.943,1.959,6.045,6.045,0,0,0-.217,1.6,4.6,4.6,0,0,0,.363,1.668,3.054,3.054,0,0,0,1.16,1.378,4.1,4.1,0,0,0,2.031.58,4.665,4.665,0,0,0,2.538-.725,5.022,5.022,0,0,0,1.74-1.959,5.65,5.65,0,0,0,.652-2.684v-.435A3.3,3.3,0,0,0,508.13,88.1Zm1.378,5.586a3.652,3.652,0,0,1-1.088,1.451,2.869,2.869,0,0,1-1.377.508,2.024,2.024,0,0,1-1.45-.58,2.34,2.34,0,0,1-.58-1.523h0a5.047,5.047,0,0,1,.8-2.684,2.5,2.5,0,0,1,2.1-1.233,1.982,1.982,0,0,1,1.378.58,2.537,2.537,0,0,1,.58,1.6A3.644,3.644,0,0,1,509.508,93.682Z" transform="translate(-138.313 -24.186)" fill="#ef7e37"/>
      <path id="Caminho_32" data-name="Caminho 32" d="M498.912,90.549a2.713,2.713,0,0,0-.363-1.306,1.694,1.694,0,0,0-.87-.726,5.519,5.519,0,0,0-1.522-.218h-3.844L490.5,97.005h1.813l.726-3.627h.725a1.84,1.84,0,0,1,.871.145,2.58,2.58,0,0,1,.8,1.161c.435,1.016.725,1.814.942,2.321h1.885a20.851,20.851,0,0,0-1.305-2.9,2.271,2.271,0,0,0-.652-.8,3.643,3.643,0,0,0,2.03-.871A2.8,2.8,0,0,0,498.912,90.549Zm-2.03.8a1.66,1.66,0,0,1-.725.508,5.675,5.675,0,0,1-1.886.145h-.942l.507-2.321h1.958a2.3,2.3,0,0,1,1.015.145.892.892,0,0,1,.362.725A1.321,1.321,0,0,1,496.881,91.347Z" transform="translate(-134.823 -24.245)" fill="#ef7e37"/>
      <path id="Caminho_33" data-name="Caminho 33" d="M484.328,97.005h-1.813l1.523-7.254H481.5l.29-1.451h6.889l-.362,1.451h-2.466Z" transform="translate(-132.349 -24.245)" fill="#ef7e37"/>
      <path id="Caminho_34" data-name="Caminho 34" d="M469,97.005l1.813-8.705h6.454l-.29,1.451h-4.641l-.435,2.031h4.5l-.29,1.451h-4.5l-.58,2.321h5.076l-.29,1.451Z" transform="translate(-128.913 -24.245)" fill="#ef7e37"/>
      <path id="Caminho_35" data-name="Caminho 35" d="M465.559,89.343a1.693,1.693,0,0,0-.87-.725,5.517,5.517,0,0,0-1.523-.218h-3.553L457.8,97.1h1.813l.725-3.337H461.5a11.737,11.737,0,0,0,1.6-.073,6.792,6.792,0,0,0,1.16-.29,2.058,2.058,0,0,0,.8-.58,3.05,3.05,0,0,0,.652-1.016,4.238,4.238,0,0,0,.29-1.306A7.529,7.529,0,0,0,465.559,89.343Zm-1.813,2.249a1.449,1.449,0,0,1-.725.58,5.537,5.537,0,0,1-1.886.145h-.58l.508-2.539h1.305a5.483,5.483,0,0,1,1.087.073.723.723,0,0,1,.363.29,1.35,1.35,0,0,1,.145.508A1.1,1.1,0,0,1,463.746,91.592Z" transform="translate(-125.835 -24.272)" fill="#ef7e37"/>
    </g>
  </g>
</svg>
