<svg id="pedidos-em-aberto" xmlns="http://www.w3.org/2000/svg" xmlns:xlink="http://www.w3.org/1999/xlink" width="80" height="80" viewBox="0 0 80 80">
  <defs>
    <clipPath id="clip-path">
      <rect id="Ret칙ngulo_84" data-name="Ret칙ngulo 84" width="80" height="80" transform="translate(3026 -574)" fill="#ef7e37" stroke="#707070" stroke-width="1"/>
    </clipPath>
  </defs>
  <g id="Grupo_de_m치scara_23" data-name="Grupo de m치scara 23" transform="translate(-3026 574)" clip-path="url(#clip-path)">
    <g id="Camada_1" data-name="Camada 1" transform="translate(3026.001 -572.433)">
      <g id="Grupo_58" data-name="Grupo 58">
        <path id="Caminho_135" data-name="Caminho 135" d="M0,2.4A3.529,3.529,0,0,1,3.732,0c3.392.057,6.784.036,10.176.012,5.443-.039,7.658,2.9,8.807,7.123.6,2.195,1.117,4.412,1.625,6.63.151.663.559.656,1.069.656q17.917-.009,35.835,0c5.6,0,11.194.01,16.791-.01A1.939,1.939,0,0,1,80,15.485V55.049a1.987,1.987,0,0,1-2.038,1.079q-21.017-.022-42.036-.01c-.218,0-.436.009-.655,0-.31-.012-.387.157-.316.416a24.476,24.476,0,0,0,1.766,5.6,3.148,3.148,0,0,0,2.143,1.607,12.194,12.194,0,0,0,2.669.275q5.564.009,11.127,0,6.327,0,12.654,0c1.313,0,1.891.534,1.921,1.812a1.594,1.594,0,0,0,.381.909,6.171,6.171,0,0,1,.5,6.726,6.72,6.72,0,0,1-4.413,3.4H61.088a1.08,1.08,0,0,0-.2-.09,6.464,6.464,0,0,1-4.4-8.9c.279-.625-.131-.56-.506-.56-2.66,0-5.322.013-7.982-.01-.621-.006-.681.159-.454.707a6.2,6.2,0,0,1-.166,5.332,6.8,6.8,0,0,1-4.478,3.52H40.29a6.793,6.793,0,0,1-4.2-3.024,6.134,6.134,0,0,1,.08-6.8c.313-.5.268-.676-.225-.966a6.789,6.789,0,0,1-2.961-4c-.948-2.953-1.584-5.991-2.333-9q-5.57-22.376-11.113-44.76a9.954,9.954,0,0,0-1.26-3.078,3.75,3.75,0,0,0-2.8-1.763c-2.848-.337-5.712-.1-8.567-.161-.289-.006-.406.129-.484.416C5.962,5.46,4.985,6.4,3.577,6.509,1.889,6.647.829,5.945,0,4.141V2.4ZM51.129,17.719H26.264q-.921,0-.707.863,4.119,16.68,8.227,33.362c.161.656.412.89,1.114.889q20.467-.033,40.933,0c.745,0,.934-.212.932-.943q-.033-16.612-.016-33.226a.847.847,0,0,0-.97-.944H51.131Zm-6.4,52.725A3.135,3.135,0,1,0,41.585,73.6,3.2,3.2,0,0,0,44.734,70.444ZM62.376,73.6a3.136,3.136,0,1,0-3.113-3.2,3.2,3.2,0,0,0,3.113,3.2Z" fill="#ef7e37"/>
        <path id="Caminho_136" data-name="Caminho 136" d="M52.8,20.817c1.865,0,3.729-.01,5.594,0a4.047,4.047,0,1,1,0,8.094q-5.594.02-11.188,0a4.047,4.047,0,1,1,0-8.094c1.865-.012,3.729,0,5.594,0Zm.006,4.8q2.468,0,4.935,0a3.974,3.974,0,0,0,.721-.044.706.706,0,0,0,.025-1.4,3.218,3.218,0,0,0-.649-.049q-5.044,0-10.089,0a3.1,3.1,0,0,0-.647.052.676.676,0,0,0-.591.717.662.662,0,0,0,.566.663,3.385,3.385,0,0,0,.719.06q2.5.007,5.008,0Z" fill="#ef7e37"/>
      </g>
    </g>
  </g>
</svg>
