<?xml version="1.0" encoding="utf-8"?>
<!-- Generator: Adobe Illustrator 27.0.1, SVG Export Plug-In . SVG Version: 6.00 Build 0)  -->
<svg version="1.1" id="Camada_1" xmlns="http://www.w3.org/2000/svg" xmlns:xlink="http://www.w3.org/1999/xlink" x="0px" y="0px"
	 viewBox="0 0 20 20" style="enable-background:new 0 0 20 20;" xml:space="preserve">
<style type="text/css">
	.st0{clip-path:url(#SVGID_00000047739020198878793380000012415301298547276985_);}
	.st1{fill:#EF7E37;}
	.st2{clip-path:url(#SVGID_00000042709473563527661030000004706213442337541511_);}
</style>
<g id="Grupo_3807" transform="translate(-1311 -3034)">
	<g>
		<defs>
			<rect id="SVGID_1_" x="1321" y="3034" width="10" height="20"/>
		</defs>
		<clipPath id="SVGID_00000025443888758338475400000007999657811424081040_">
			<use xlink:href="#SVGID_1_"  style="overflow:visible;"/>
		</clipPath>
		
			<g id="Grupo_de_máscara_232" transform="translate(590 4700) rotate(-90)" style="clip-path:url(#SVGID_00000025443888758338475400000007999657811424081040_);">
			<g id="Camada_1-2" transform="translate(1646.065 721)">
				<path id="Caminho_1258" class="st1" d="M0,19.3c0-0.2,0.1-0.3,0.2-0.4c0.1-0.1,0.2-0.2,0.2-0.3l8.8-8.3c0.1-0.1,0.1-0.1,0.2-0.1
					c0.3-0.3,0.8-0.3,1.1,0c0,0,0,0,0,0c3,2.8,6.1,5.7,9.1,8.5c0.3,0.2,0.4,0.6,0.1,0.9c-0.2,0.3-0.6,0.4-0.9,0.2
					c-0.1-0.1-0.2-0.1-0.3-0.2c-2.8-2.6-5.6-5.2-8.4-7.9c-0.1-0.1-0.3-0.1-0.4,0c0,0,0,0,0,0c-2.8,2.6-5.6,5.3-8.4,7.9
					C1.1,20,0.8,20.1,0.5,20C0.2,19.9,0,19.6,0,19.3L0,19.3z"/>
			</g>
		</g>
	</g>
	<g>
		<defs>
			<rect id="SVGID_00000072260508078062585400000003969454228892925887_" x="1311" y="3034" width="10" height="20"/>
		</defs>
		<clipPath id="SVGID_00000057146253072799776710000011913560061981629616_">
			<use xlink:href="#SVGID_00000072260508078062585400000003969454228892925887_"  style="overflow:visible;"/>
		</clipPath>
		
			<g id="Grupo_de_máscara_233" transform="translate(600 4700) rotate(-90)" style="clip-path:url(#SVGID_00000057146253072799776710000011913560061981629616_);">
			<g id="Camada_1-2-2" transform="translate(1646.065 721)">
				<path id="Caminho_1259" class="st1" d="M0-0.7C0-0.8,0.1-1,0.2-1.1c0.1-0.1,0.2-0.2,0.2-0.3l8.8-8.3c0.1-0.1,0.1-0.1,0.2-0.1
					c0.3-0.3,0.8-0.3,1.1,0c0,0,0,0,0,0c3,2.8,6.1,5.7,9.1,8.5C19.9-1,20-0.6,19.7-0.3c-0.2,0.3-0.6,0.4-0.9,0.2
					c-0.1-0.1-0.2-0.1-0.3-0.2c-2.8-2.6-5.6-5.2-8.4-7.9c-0.1-0.1-0.3-0.1-0.4,0c0,0,0,0,0,0C6.9-5.5,4.1-2.9,1.3-0.3
					C1.1,0,0.8,0.1,0.5,0C0.2-0.1,0-0.4,0-0.7L0-0.7z"/>
			</g>
		</g>
	</g>
</g>
</svg>
