<?xml version="1.0" encoding="utf-8"?>
<!-- Generator: Adobe Illustrator 27.0.1, SVG Export Plug-In . SVG Version: 6.00 Build 0)  -->
<svg version="1.1" id="Camada_1" xmlns="http://www.w3.org/2000/svg" xmlns:xlink="http://www.w3.org/1999/xlink" x="0px" y="0px"
	 viewBox="0 0 15 8" style="enable-background:new 0 0 15 8;" xml:space="preserve">
<style type="text/css">
	.st0{clip-path:url(#SVGID_00000003810184134285761150000013897599022767285377_);}
	.st1{fill:#707070;}
</style>
<g>
	<defs>
		<rect id="SVGID_1_" width="15" height="8"/>
	</defs>
	<clipPath id="SVGID_00000154417656460347743220000001777033457257806744_">
		<use xlink:href="#SVGID_1_"  style="overflow:visible;"/>
	</clipPath>
	
		<g id="Grupo_de_máscara_6" transform="translate(-1646 -721)" style="clip-path:url(#SVGID_00000154417656460347743220000001777033457257806744_);">
		<g id="Camada_1-2" transform="translate(1646.049 721)">
			<path id="Caminho_10" class="st1" d="M0,7.5c0-0.1,0-0.2,0.1-0.3C0.2,7.1,0.2,7,0.3,6.9l6.6-6.6C7,0.3,7,0.2,7,0.2
				c0.2-0.2,0.5-0.2,0.8,0c0,0,0,0,0.1,0.1c2.3,2.3,4.6,4.6,6.8,6.8c0.2,0.2,0.3,0.5,0.1,0.8c-0.2,0.2-0.4,0.3-0.6,0.2
				c-0.1,0-0.2-0.1-0.2-0.2c-2.1-2.1-4.2-4.2-6.3-6.3c-0.1-0.1-0.2-0.1-0.3,0c0,0,0,0,0,0C5.2,3.6,3.1,5.7,1,7.8C0.8,8,0.6,8,0.4,8
				C0.1,7.9,0,7.7,0,7.5L0,7.5z"/>
		</g>
	</g>
</g>
</svg>
