<svg xmlns="http://www.w3.org/2000/svg" xmlns:xlink="http://www.w3.org/1999/xlink" width="10" height="20" viewBox="0 0 10 20">
  <defs>
    <clipPath id="clip-path">
      <rect id="Ret칙ngulo_1895" data-name="Ret칙ngulo 1895" width="20" height="10" transform="translate(1646 721)" fill="#ef7e37" stroke="#707070" stroke-width="1"/>
    </clipPath>
  </defs>
  <g id="Grupo_de_m치scara_2731" data-name="Grupo de m치scara 2731" transform="translate(-721 1666) rotate(-90)" clip-path="url(#clip-path)">
    <g id="Camada_1-2" transform="translate(1646.065 721)">
      <path id="Caminho_1273" data-name="Caminho 1273" d="M19.868.685a.61.61,0,0,1-.154.413,3.416,3.416,0,0,1-.249.255l-8.832,8.28c-.054.051-.1.1-.163.149a.755.755,0,0,1-1.093-.03Q4.824,5.484.267,1.217A.656.656,0,0,1,.122.311.753.753,0,0,1,1.034.064,1.081,1.081,0,0,1,1.351.3Q5.543,4.232,9.734,8.157a.266.266,0,0,0,.408,0q4.2-3.942,8.406-7.884A.793.793,0,0,1,19.4.047a.674.674,0,0,1,.467.642Z" transform="translate(0.001 -0.002)" fill="#ef7e37"/>
    </g>
  </g>
</svg>
