<?xml version="1.0" encoding="utf-8"?>
<!-- Generator: Adobe Illustrator 27.0.1, SVG Export Plug-In . SVG Version: 6.00 Build 0)  -->
<svg version="1.1" id="Camada_1" xmlns="http://www.w3.org/2000/svg" xmlns:xlink="http://www.w3.org/1999/xlink" x="0px" y="0px"
	 viewBox="0 0 10 20" style="enable-background:new 0 0 10 20;" xml:space="preserve">
<style type="text/css">
	.st0{clip-path:url(#SVGID_00000034067201389842376050000006392479318952169142_);}
	.st1{fill:#EF7E37;}
</style>
<g>
	<defs>
		<rect id="SVGID_1_" width="10" height="20"/>
	</defs>
	<clipPath id="SVGID_00000046326310931220911400000013619835781457087890_">
		<use xlink:href="#SVGID_1_"  style="overflow:visible;"/>
	</clipPath>
	
		<g id="Grupo_de_máscara_2731" transform="translate(-721 1666) rotate(-90)" style="clip-path:url(#SVGID_00000046326310931220911400000013619835781457087890_);">
		<g id="Camada_1-2" transform="translate(1646.065 721)">
			<path id="Caminho_1273" class="st1" d="M0,9.3C0,9.2,0.1,9,0.2,8.9c0.1-0.1,0.2-0.2,0.2-0.3l8.8-8.3c0.1-0.1,0.1-0.1,0.2-0.1
				c0.3-0.3,0.8-0.3,1.1,0c0,0,0,0,0,0c3,2.8,6.1,5.7,9.1,8.5C19.9,9,20,9.4,19.7,9.7c-0.2,0.3-0.6,0.4-0.9,0.2
				c-0.1-0.1-0.2-0.1-0.3-0.2c-2.8-2.6-5.6-5.2-8.4-7.9c-0.1-0.1-0.3-0.1-0.4,0c0,0,0,0,0,0C6.9,4.5,4.1,7.1,1.3,9.7
				C1.1,10,0.8,10.1,0.5,10C0.2,9.9,0,9.6,0,9.3L0,9.3z"/>
		</g>
	</g>
</g>
</svg>
